<mxfile host="app.diagrams.net" agent="Mozilla/5.0 (Windows NT 10.0; Win64; x64) AppleWebKit/537.36 (KHTML, like Gecko) Chrome/131.0.0.0 Safari/537.36 OPR/116.0.0.0" version="26.0.8">
  <diagram name="Page-1" id="vooFc2nD6R1E4tZgXH5N">
    <mxGraphModel dx="1239" dy="221" grid="1" gridSize="10" guides="1" tooltips="1" connect="1" arrows="1" fold="1" page="1" pageScale="1" pageWidth="850" pageHeight="1100" math="0" shadow="0">
      <root>
        <mxCell id="0" />
        <mxCell id="1" parent="0" />
        <mxCell id="e8Ee8q1TeskRo7m8Dpk5-1" value="PDF Processor&lt;br&gt;(Pdf2Image, OCR)" style="html=1;dropTarget=0;whiteSpace=wrap;" parent="1" vertex="1">
          <mxGeometry x="140" y="300" width="180" height="90" as="geometry" />
        </mxCell>
        <mxCell id="e8Ee8q1TeskRo7m8Dpk5-2" value="" style="shape=module;jettyWidth=8;jettyHeight=4;" parent="e8Ee8q1TeskRo7m8Dpk5-1" vertex="1">
          <mxGeometry x="1" width="20" height="20" relative="1" as="geometry">
            <mxPoint x="-27" y="7" as="offset" />
          </mxGeometry>
        </mxCell>
        <mxCell id="e8Ee8q1TeskRo7m8Dpk5-3" value="Database Handler&lt;br&gt;(Persistence)" style="html=1;dropTarget=0;whiteSpace=wrap;" parent="1" vertex="1">
          <mxGeometry x="-150" y="500" width="180" height="90" as="geometry" />
        </mxCell>
        <mxCell id="e8Ee8q1TeskRo7m8Dpk5-4" value="" style="shape=module;jettyWidth=8;jettyHeight=4;" parent="e8Ee8q1TeskRo7m8Dpk5-3" vertex="1">
          <mxGeometry x="1" width="20" height="20" relative="1" as="geometry">
            <mxPoint x="-27" y="7" as="offset" />
          </mxGeometry>
        </mxCell>
        <mxCell id="e8Ee8q1TeskRo7m8Dpk5-5" value="CSV Exporter" style="html=1;dropTarget=0;whiteSpace=wrap;" parent="1" vertex="1">
          <mxGeometry x="-150" y="100" width="180" height="90" as="geometry" />
        </mxCell>
        <mxCell id="e8Ee8q1TeskRo7m8Dpk5-6" value="" style="shape=module;jettyWidth=8;jettyHeight=4;" parent="e8Ee8q1TeskRo7m8Dpk5-5" vertex="1">
          <mxGeometry x="1" width="20" height="20" relative="1" as="geometry">
            <mxPoint x="-27" y="7" as="offset" />
          </mxGeometry>
        </mxCell>
        <mxCell id="e8Ee8q1TeskRo7m8Dpk5-7" value="Azure OpenAI Handler&lt;div&gt;(GPT-4o)&lt;/div&gt;" style="html=1;dropTarget=0;whiteSpace=wrap;" parent="1" vertex="1">
          <mxGeometry x="430" y="300" width="180" height="90" as="geometry" />
        </mxCell>
        <mxCell id="e8Ee8q1TeskRo7m8Dpk5-8" value="" style="shape=module;jettyWidth=8;jettyHeight=4;" parent="e8Ee8q1TeskRo7m8Dpk5-7" vertex="1">
          <mxGeometry x="1" width="20" height="20" relative="1" as="geometry">
            <mxPoint x="-27" y="7" as="offset" />
          </mxGeometry>
        </mxCell>
        <mxCell id="e8Ee8q1TeskRo7m8Dpk5-9" value="Entrypoint" style="html=1;dropTarget=0;whiteSpace=wrap;" parent="1" vertex="1">
          <mxGeometry x="-150" y="300" width="180" height="90" as="geometry" />
        </mxCell>
        <mxCell id="e8Ee8q1TeskRo7m8Dpk5-10" value="" style="shape=module;jettyWidth=8;jettyHeight=4;" parent="e8Ee8q1TeskRo7m8Dpk5-9" vertex="1">
          <mxGeometry x="1" width="20" height="20" relative="1" as="geometry">
            <mxPoint x="-27" y="7" as="offset" />
          </mxGeometry>
        </mxCell>
        <mxCell id="e8Ee8q1TeskRo7m8Dpk5-11" value="" style="shape=providedRequiredInterface;html=1;verticalLabelPosition=bottom;sketch=0;rotation=-90;" parent="1" vertex="1">
          <mxGeometry x="-70" y="430" width="20" height="20" as="geometry" />
        </mxCell>
        <mxCell id="e8Ee8q1TeskRo7m8Dpk5-12" value="" style="shape=providedRequiredInterface;html=1;verticalLabelPosition=bottom;sketch=0;rotation=90;" parent="1" vertex="1">
          <mxGeometry x="-70" y="230" width="20" height="20" as="geometry" />
        </mxCell>
        <mxCell id="e8Ee8q1TeskRo7m8Dpk5-13" value="" style="shape=providedRequiredInterface;html=1;verticalLabelPosition=bottom;sketch=0;rotation=-180;" parent="1" vertex="1">
          <mxGeometry x="70" y="335" width="20" height="20" as="geometry" />
        </mxCell>
        <mxCell id="e8Ee8q1TeskRo7m8Dpk5-14" value="" style="shape=providedRequiredInterface;html=1;verticalLabelPosition=bottom;sketch=0;rotation=-45;" parent="1" vertex="1">
          <mxGeometry x="110" y="470" width="20" height="20" as="geometry" />
        </mxCell>
        <mxCell id="e8Ee8q1TeskRo7m8Dpk5-15" value="" style="shape=providedRequiredInterface;html=1;verticalLabelPosition=bottom;sketch=0;rotation=-180;" parent="1" vertex="1">
          <mxGeometry x="370" y="335" width="20" height="20" as="geometry" />
        </mxCell>
        <mxCell id="e8Ee8q1TeskRo7m8Dpk5-16" value="" style="endArrow=none;html=1;rounded=0;entryX=0.5;entryY=1;entryDx=0;entryDy=0;" parent="1" target="e8Ee8q1TeskRo7m8Dpk5-5" edge="1">
          <mxGeometry width="50" height="50" relative="1" as="geometry">
            <mxPoint x="-60" y="230" as="sourcePoint" />
            <mxPoint x="-130" y="240" as="targetPoint" />
          </mxGeometry>
        </mxCell>
        <mxCell id="e8Ee8q1TeskRo7m8Dpk5-17" value="" style="endArrow=none;html=1;rounded=0;exitX=0.5;exitY=0;exitDx=0;exitDy=0;" parent="1" source="e8Ee8q1TeskRo7m8Dpk5-9" edge="1">
          <mxGeometry width="50" height="50" relative="1" as="geometry">
            <mxPoint x="60" y="390" as="sourcePoint" />
            <mxPoint x="-60" y="250" as="targetPoint" />
          </mxGeometry>
        </mxCell>
        <mxCell id="e8Ee8q1TeskRo7m8Dpk5-18" value="" style="endArrow=none;html=1;rounded=0;exitX=1;exitY=0.5;exitDx=0;exitDy=0;exitPerimeter=0;" parent="1" source="e8Ee8q1TeskRo7m8Dpk5-11" edge="1">
          <mxGeometry width="50" height="50" relative="1" as="geometry">
            <mxPoint x="60" y="390" as="sourcePoint" />
            <mxPoint x="-60" y="390" as="targetPoint" />
          </mxGeometry>
        </mxCell>
        <mxCell id="e8Ee8q1TeskRo7m8Dpk5-19" value="" style="endArrow=none;html=1;rounded=0;exitX=0;exitY=0.5;exitDx=0;exitDy=0;exitPerimeter=0;entryX=0.5;entryY=0;entryDx=0;entryDy=0;" parent="1" source="e8Ee8q1TeskRo7m8Dpk5-11" target="e8Ee8q1TeskRo7m8Dpk5-3" edge="1">
          <mxGeometry width="50" height="50" relative="1" as="geometry">
            <mxPoint x="60" y="390" as="sourcePoint" />
            <mxPoint x="110" y="340" as="targetPoint" />
          </mxGeometry>
        </mxCell>
        <mxCell id="e8Ee8q1TeskRo7m8Dpk5-20" value="" style="endArrow=none;html=1;rounded=0;exitX=1;exitY=0.5;exitDx=0;exitDy=0;" parent="1" source="e8Ee8q1TeskRo7m8Dpk5-9" edge="1">
          <mxGeometry width="50" height="50" relative="1" as="geometry">
            <mxPoint x="60" y="390" as="sourcePoint" />
            <mxPoint x="70" y="345" as="targetPoint" />
          </mxGeometry>
        </mxCell>
        <mxCell id="e8Ee8q1TeskRo7m8Dpk5-21" value="" style="endArrow=none;html=1;rounded=0;entryX=0;entryY=0.5;entryDx=0;entryDy=0;" parent="1" target="e8Ee8q1TeskRo7m8Dpk5-1" edge="1">
          <mxGeometry width="50" height="50" relative="1" as="geometry">
            <mxPoint x="90" y="345" as="sourcePoint" />
            <mxPoint x="110" y="340" as="targetPoint" />
          </mxGeometry>
        </mxCell>
        <mxCell id="e8Ee8q1TeskRo7m8Dpk5-22" value="" style="endArrow=none;html=1;rounded=0;exitX=1;exitY=0.5;exitDx=0;exitDy=0;entryX=0;entryY=0.5;entryDx=0;entryDy=0;entryPerimeter=0;" parent="1" source="e8Ee8q1TeskRo7m8Dpk5-3" target="e8Ee8q1TeskRo7m8Dpk5-14" edge="1">
          <mxGeometry width="50" height="50" relative="1" as="geometry">
            <mxPoint x="60" y="390" as="sourcePoint" />
            <mxPoint x="110" y="340" as="targetPoint" />
          </mxGeometry>
        </mxCell>
        <mxCell id="e8Ee8q1TeskRo7m8Dpk5-23" value="" style="endArrow=none;html=1;rounded=0;entryX=0.5;entryY=1;entryDx=0;entryDy=0;exitX=0.979;exitY=0.591;exitDx=0;exitDy=0;exitPerimeter=0;" parent="1" source="e8Ee8q1TeskRo7m8Dpk5-14" target="e8Ee8q1TeskRo7m8Dpk5-1" edge="1">
          <mxGeometry width="50" height="50" relative="1" as="geometry">
            <mxPoint x="60" y="390" as="sourcePoint" />
            <mxPoint x="110" y="340" as="targetPoint" />
          </mxGeometry>
        </mxCell>
        <mxCell id="e8Ee8q1TeskRo7m8Dpk5-24" value="" style="endArrow=none;html=1;rounded=0;entryX=1;entryY=0.5;entryDx=0;entryDy=0;entryPerimeter=0;exitX=1;exitY=0.5;exitDx=0;exitDy=0;" parent="1" source="e8Ee8q1TeskRo7m8Dpk5-1" target="e8Ee8q1TeskRo7m8Dpk5-15" edge="1">
          <mxGeometry width="50" height="50" relative="1" as="geometry">
            <mxPoint x="210" y="390" as="sourcePoint" />
            <mxPoint x="260" y="340" as="targetPoint" />
          </mxGeometry>
        </mxCell>
        <mxCell id="e8Ee8q1TeskRo7m8Dpk5-25" value="" style="endArrow=none;html=1;rounded=0;entryX=0;entryY=0.5;entryDx=0;entryDy=0;exitX=0;exitY=0.5;exitDx=0;exitDy=0;exitPerimeter=0;" parent="1" source="e8Ee8q1TeskRo7m8Dpk5-15" target="e8Ee8q1TeskRo7m8Dpk5-7" edge="1">
          <mxGeometry width="50" height="50" relative="1" as="geometry">
            <mxPoint x="210" y="390" as="sourcePoint" />
            <mxPoint x="260" y="340" as="targetPoint" />
          </mxGeometry>
        </mxCell>
        <mxCell id="e8Ee8q1TeskRo7m8Dpk5-28" value="" style="shape=image;verticalLabelPosition=bottom;labelBackgroundColor=default;verticalAlign=top;aspect=fixed;imageAspect=0;image=data:image/png,iVBORw0KGgoAAAANSUhEUgAAAQAAAAEACAYAAABccqhmAAAAAXNSR0IArs4c6QAAAARnQU1BAACxjwv8YQUAAAAJcEhZcwAADsIAAA7CARUoSoAAAMsnSURBVHhe7P0J+K5bVtWHvmefvquWKqgqqsSylE4aEQSRgAgqehWbSLwxeq/eR43RqI/caDQGO4wmPqj4mESNJjYxYq7YELEBRCOISKMUnVCUUEUVFAVUd+r07b7zN8Ycc6332/tQPVCn9vj+651zjjnmXGu9zff//ru96fgJxh//5z969dVveuz4/rc+frzl4SePhx5/6njwsas1njpY3E03cbwqe/Xq1eOK4uYrLsc6sQpDd2zCfa4X1yH6Cx3zOV7zomUyz7ryIjl2aHlrcAvpPXVbL8/litRBOB6m+xKHMdSjXu7bjTlOoULlNZdDC3qf+35dgG7vy5e5Tl9ju50Q/+Yrx/HkU44B3OjKQjO3vTZ7DMr1uhfHWlosm/W718JZdRxPlaP5yxfauV6/FVJgRaBpRLfT2Zl+y911a43brhx3ln3OHVeOD332rcef+9wXUvQTih/3Bfy6L/mBq1/72of0sAt1ftZDLSPg5mbMDbelxx9N2eFanBi07DwHQV0g1dqVdad1s6nG11FYdR1vuumhANb9dxANJT2BC+VlTWbdfdOD1GctQ2wuHfzAEkSnVOvCZa7es4NBZMHeCprYWInMDe689crxcL2xXxdqYHewcb288Q0LtN5K6nwpXrnAD2BhdFYE5/5dW19TJ7h2h+LuqQZ7LLCe8gk7DZz3hDk/4Ll33nx8ysvuOP78r/hgJ3+c8OMy2a/+31939ate/eDxpPbbN1khN/6KZcTb9QXOyYVzTVkdVy0gddKXVYxEVDuF+Y5eiLfyttdoku9eCbE9ZemabOw9dz1AOw8dthu5pquuU9POWdsa0TVaJaDhxltrIc/cIPMXVlrInNc0bGTdCNW/WbhVctNx7+03Hfc/yhtA9tstt7robVcP4ZSMU8cyhNgRKW4/ArLM0/MJXdjRIGmtUxrXav46TH0j0cypthQ5l/V1tnt1n209MhYcV67cdHz8i+44/s6vfzHM+xTvswm+8Kt/5Or/9G/eetz3MBe+T2YBuyY1T8zIOeAAGx2luSkI6rTBiiGXOl+wNReIGybzceL1gCeh1sqMJoh/TX/LK14akPy13Fq3sZ0XRVtNOUt3Xk/geTkbVBIXoTvJPntc84LuI6q4yile4cUilit675kCLNj889zH8bw7r9Qnvms/AewaQHx9lEbtS1/RWaVEr0/uQA9xvUxJIQ9oLoWrXthkl71IZM2pP2nkw7cOPS9Tzm817gHh+CnFJBxj+NHh8z723uMPf/YHkXmv473e9PO//I1X/9q/fZt+ls+NkousYx2wuvXaB7KKfVNy4i6/A+fED2+hziE5sz7xYMlWnHOu2Gbq0+ukacJ7WL3B9TUV1+DiRRkdGLfIjbZfh8We51JcNbkBdxCFW3nXcx4VX2dvQi/0rF1i4vTc576GK1uOchxpa1w9PuTeW4433s+PfD3Z2MZWG5zmMmFNW+WTK+w+2OV7kj0uwn1A9iKuxavHzrt25UzJbkh8WQN2aeYHZ74OLhN/xy3H8Z9+/LOOL/is9+4bwXu12Yv+u1ddfWv/bE/jXECZ2kWH4ps6roiJFqZ8XgnL4iYvO712ztZMPuKvfqMj7tT0VN5oycZc/LjgEgkyL+SuT8/pX1Y3rGL3dkalcqYXKDdrjnKvDU59t3Vw05mLbtLiktrrMvepJ5hCA0+1HSjdfubT/BDNfdjzbj1e85bHzAXlTm3D5Rx7H5l71uDcjpOmYZUf2JVOrW3WiA0fiWpaGciffDtQEdfBfPLF1MTOl9WvPHafRvqES12w8m0rfu5dNx//7nd9mCd/L+C90ujn/YXvu/rNP/CIr1GBje+N4Yn7sjZnhXj566Zxpq3iVLYGOjUzl/0yZUWYn3zX1Ek8zUdBcg28xMO2dJNtuu7R6r3/ec0yQlxzS9+uEL0lddxuEM1BPE17X02tFAfXnWr6POSm85oXzpGBUjKXGFu82i+S+ONefPvxrW94dPInFCf1RY9rIJ6E1CFcAFP+7OfUJA+Qfdeu9DnnPri6di2KYs1xrotOLdrda1bCa4kcXKOrr+lX2Mv1I0Lj4198x/H3/18vIfMe4T1u8Lw/+t1XH+Tjfvm68LXI/WbCvV5uJLUna3TYYqxPLpY4kvQShS8rU3mcqolYXOf7/I22nHYHfLf3nI6j8Dw9Z+J9r2WkZV3FcalFd54jzJK3I33HEm3nqF7cMK286LXt0VMuaCKnBgi0JPfzWqxIrNzoGp201jevy9AloEBkIT4W76bj019+x/E13/cI1Yqxo9lLC2lp62sxSNuL0tXPUI0XSdDZzGvMPB3jzPq6JsCfen/1GsubNXo+c1iFJ/AA7/vH7rXAseeQZmu0POtuv+Wm47v/q5ev4ncD+QT+LuM3/p0fvHr7H/z3V/n9+tPKcuIL+0dnnZFT7G3zK556VaC4bS4+NmU3qebMS6vBC3CSKyZXejYovtfImtbLsL7iJkbTHNZ9b3JOcXjDnjcVes8zPVHGrJP9q6f5nLPMqfPR+dRw46Q3x3YHxHsfDXz1c+w9uh74vDeHn6GYo0+g6xzvPL2lZXCQdf5Zt1+po/PAtvW5/s1m3bK6zu4nltOL01ZcYVX3WippvdeYdXCMVhSgVxn3M5ka1dWX19T14iVz3lMWMjcl7qR8Q/es2IZiel+xVuSqsWX9+KIKnkNvCkU+8sTV48P++++9+v/98h+ZVbyreLfeAD7zf3nN1b/1yrf14nwzzQWrfAYLhtdL1pBWQR0ulw7fQtWMX4O7tHuK4xUBJ6uOrul8UgU43myMPrHlhYnvuPOcZ73S27lAmjqMhdPL8WjK5kGmfLQcsJpnQTlGHay0TU+f08u8h3Kti51zM/snt0Zw8tO3SPYfP/vHI2S+Nac259xobjqee+eVk8Y9nXO7dT3AWLhNS4/wqJIX8MM5XPrTG4Hhvtb3lgxJfL6wfjwbLd4YUav33qigee1ag+e1uMlW0zm5XcRx/DLLZ+Ur/3e/4/7jV/6NH7iY/J3Du/wG8PF/7nuv/uvXPTyL8aL1Yea8wHK1zD4JUcf6xHauSQw1tq2t9nkQr0FR/jRQbje5VEHr5iNgqZsWrLUy7LdnsiEdtl70W89SzS+T/TvWcNi1nRNpTjkForom84Th2Hscxpie+N13gc1anwch8+1SraxiWeIKopFFJNs8L3JpUvsOVMt5aF+o+Dl33iwOhJe9vHZl2x279wfQXgnztC1jf9mAaL3xoWVUrL72U7/67D7IHIZq2gfyObeIOpaew8U5H43s5d48r+YTU9519w/WPoi/9Q2PHb/or7zuLH4n8C69Afz0L3r11e/60Ue1bi2kFjCDV5GMgWITrMx5Yq/TfuqXFk7HMnp4dQG9UcXl4E+s16ofvnOeb13E684Xt+D7xfOpBn3nZXVRVn/n8TyvHCu6rufvuNP266AaxZ2RPc8f7HNJs8XRcaQn+xBV04fDGb2OznVp+4uXrTjP0FnnnPwtJkh87x03H3ffRrQ4Wfms3T4YC8mNrbzHOh97TZ9TeOWaIx8dXO/f2tYrj3cJ1wfqwatJbD6Cq4fY6JwfskAozBrwK1DcPRC5paxU1+y/63VIZI1x9fieNz1+fNpf+H51eGfxTr8BfOKf/96rr3vr473QnlQbuThhOhbXHiBPZC4bW9ps1nV+APeN4aUGJJ6AHu2uXM5D5ttWtM9XRjWMTZMa+Ry071h0rNuJ1AyiVS4POP3g3C+9dQ5LZ417Zf8nfY1d4zWYD6ibc6e1GdL2E6zjdfYP3N/Au5zjGl3P4V6FzJn9l33Js+q7f+dlO3dZ01HPW6PWK3+4Ph86X45tZQreU17TeOYrv7Vk5HIesEJ+XDUkX8lNm3mqy8VaBChp4TzT5MuIoV5UfhGQnioT8FfPJguaddNcAuoH7nuiPgm8fhW9A7xTbwCf8Zdec/Xbf7i+8xeyeSbD181Q0ynOC00RcCCc/LZANdJaL27SOeFG/NFp8PINKToi1ZqbeXUk3rlowvm8xRevONyyADcPA0dy4ezDpmdrFBW4SYr02l0XG+z6zDt28z2f3J7OvaG8viK9DPMtjiYcklWz+mN2rfq3P3GZrMNa7+1D7vXH/6XD4romPcLLspBeb6Bs6xPvNRqKXEwkTb/xAdd4KO4ar5uHy5MS61wgLAdz001+VNY87UvT50NceFuvJb41AVzm1hBXh33v2o57gD3vCvfZ8T1veuz4NX/zB/cuT4t3+Abw//nSH7z6b17/sHzmyVz7pOaznG2xDAXaRcXbiWKoxjm+3FMFzs1oWltK3mMHoU7oppGV74Bfe1AsTpRRJ9kXw6FUWlOiXEgPtIG5zOpYtfLNrpzn2OcKiNMFa62HsZ2/ppIB4vWdE6+0LcLqk4G41jU/0P7Nr9roW9d5Dc2T9dSreymWq4t1vPhZt+jBOp2/1mtI5+Fca+pwejhI9PXA5SBrdxC9+5XV3H4pP561O2aegq4vtWVcsdYHMkd8xZ2U3in5/PqYCK3f3TKEmidzDVuGeD8HNKAat1WFnqhh3XF80+sfOX7vP3rHvzvwDt8A/o9vuU+TedRRC/Uk4sZnrpUDXmi/KhjtpgHOY8G1H8VojfVvGV47B8nhYs6hsJVteb8CrVN204wtRzdU4ubwdfQFAhw1Kn+9i2hrQMOFt57Mun6E/JaR/OixaOnlAunUm3hbKzDXQSF10C7HdwVHzdHBmmPrXdbyzNNcz0HuJc++pXUeJRG/anoe8mK6hzwaZfRDWcBYASfTnAdAqzce1TDpygG3Ik/gnEcdqw64FsdGoBWxWmYV6GuI67gcfLTZm9Y/a1pQXhxj7V9tBTvWVN6Rj90rNiD8/33b2zt6evyYbwDP+SPfdZVGfT7UdE0oU2BBBN6EvDrMxdIxi3asUQf7rguWx4kog66d+cUX5Vurc43nEwcweCveLF8y6eN59vW2234d+6JN3NY3+j5vceVK13cmD47q5TNag3bz6bP3kq+Xb3JLyLtH8qmZv/lYYC94ewwwHn0zCl3PKJ/C1dfap9s/crD6R7O4n/q8W+rYwgK0Nc6rBrfmmFhevhGQt9XvNPWLvOoKrt966ni9dW1x+6rjlaKyzq31zPXDx5FvC9zdeWu2/oC9Jdxo6TA15tcCOvZ+cLB28iNKVzg/rYnL67UC4o/8ou9L0XXxtG8An14/9z/yhH1diF4EiAtn3osZSU+ZmnNt61nm0I73eYj16g1y+X1DGOIq9kX25q0zD/Yaj1WvRVYQLVie+enZNnCN59T8tCqz98daVzbfplRjb9fponUvYo96RdwgNucTjOv5L/evtGz08vUC1BdXr1l/MdOjDlkL2NcFdp37Oxc/IH75826t3OqFZXbpIRrMobU0Vi/WaWgdCnr/vCBY/yrdau07ch+leJD6QbG2+5VLZD9zxXfAcfwyo9ELuHeuCZDVFD7nsmWcNWYO1ZRYyV2xadxMvRK7r2HOePiJq8fn/rWn/zMCT/sG8A2v4+f+1PlkyZaDn+9+YCas0Iu0xidBGcW5wLPY0vvmIt7mqnA2imk5UEiNuJ5fLyNy9aiXPkbiS+B9uN5V1jWHFVceF7EBHyzdwjzf9Cd/EQOO/lNfrjeiXwwgNNfnomvks51y9hrH8XWUdRV7jl7F/SBZA7DtyrZSCB/4eu3nZt9j7we/Di+4+8rx7DvWLZZ51/lKv4C1es4ZW7/APRaBa1XOV3Mc+jriz57KXyN6jsCcxGubRh7qC96lPU/Xu4f3A8xxsAasH1E2sN7izG/76QHI8Vo/IrVIeqtGX+lve6N/Af96uO4bwEv+xKv00V/TMJmGY81X0C8CQSYmX8OblrjrFFkruCA9HW8Lx0rSuozUY3qOZtRH/eSHNfYbTDWKe9Gg3JT4OzW9t37xe8y6FMsVcnPP2sqV1ct6157rlauRh8I6uF6HuOZ1cyjtervKk5BOr5HNg5I3jssLfj0tEF/x5dAaCrPfhmudl7ZeP+35tzpZmN57vTwjvfaeQNGFllNILK73RZlnPSlXP+k8Br2W89zhrjfqoJrzp1GQHvkxpZipcdTY5nTJms+2HE+xwclQfuNYPeMzU7ggfT/ui19z6hhc8wbw+f/ojVff/NCTXghT9oIxmkijDiyi+CvVAYtUC+gZfSx0vXH+Ba7RbjUadYCzdml80lNvDl+hTkp5Pd9JV2PmVd4+D930773u8y1Q0ye9Dklh6GusPOBoL/vvdam+RvvhbF2TXIbW1ZzPARqvNedE87cFrpUrq7h8stipbZFM7z85w3PHJg8mVsS1rbjfyZD8NP38D3pN9Kh8KtzH98SK0dnPuFwXlHRl88bJFOaZi7VGR2336zT2zHlvM0+/BLebOgrRzK9H1Qjw115k1HOH+ncutbLd32NfM7lelzjzgjj7mgZpL/akK9z3yFPHF371m86LKVzzBvBXv/mtdnpSnfAKc6L3psDnwQvx5Asok3OPVRsvuWjFEXWr5LzDWlM4kRsqNs+aL/IV5BdQ/MmlnFlqTq4H0PGa/dexavAzOORjnFT0LKMcLn56xMI7bb85gJ/1BNEskIfnxRnvffGCr4P2L9awv+2H0eeT4XWZlw659OuaxWLs2aeFOA74Tgk/80Nuk9V8rdnzwHNSl30tTg0L7s26HINoYOTVAas5NEh6L54Vf8/VaKSX7HZe0Pt8kZPEPraH5+ClQEehXLGqx+Ja1e2XpnFaB2AtqlPgmh3ks0d0WF4q2O55DuX+rVfer3jH6Q3gC77yR64+/DjN6KYyz2nXfE84N1LnUO4nyzmS1u+ojPP7jqhpV34CNcM0sfkcZx2KjD5vK4/fFiy+XjuPX8FYsbV+ggI1AZx+om+tudJQxZf4cvoi7JAuRX0OiDIAacX02W2/VFec9y93kBmhnLdmraX2xBvh9DLQrH7O6Fy2RGvuFn6TaW33iC9bh4/+YL8BXIK85sGf/uli5E1MvWRXVj73YdnZX3JtgXi0+iKz7kXnsE0UcKemlf5Ib4jv/UsX2wIYvSoWJ74LUtcH10C6f3oECZddgtTOWi+LOTdlnOpcmYcee+r4oq95c6/EOL0B/KVveEvpuphBA/kcjWlYOGlPmjroZiPPIkWPZuJy8GVNXcdfc+SmAVqHgp6HkHxZ3agFaXIyOnamIGflhE0L3Gar2ebBB3ga8GV1wxBo/73mzo1tJbrJY6VxTPuZhzw5nopG9AF+zk+s6ntPwA+9teZ6DxE0Rs+rAleB3v8enyzAv+n40GfdfDznztxervB+EtGrvHKJO+XYaedNC7MvRgoQskdyzZ3qfPqEVdOct3/WF/B135UjfuqaS3gN1icyGc3NulyTstTPmpMoKFeD8n29IPtX3+S4z3SN+6X6fGstS761mL/+b89/NuD0BnD/Yz6RzKCSrsV3e2MtuhnCmcRKFmvCxvfu+nkvIEo72VxM5dgGnnOB5upNk3dMpteN7R4q5ItgTpSopSnoO45iCWedMuTkb7W8cBJ3kIvkel8GzGj3h/jCxlFvedt6OfQe00J8jTmnfe5icRXrK3xzBexarzXOtF7zoyO2Hlwbl5oxvv8VoIW1Ls3nMjfBlMV1B/dIDihXhyoveA9APK9JrnlIpk99dX3vv0nya87EdLFv3pxGc45ico7MjT5ajJZjZ/VYkL5HtNeoitCbC3l6SAdfWvU8v/lAwY5Vop5x/evMC/MG8Dn/2/dfjUgLUOMhCm7uudi081hNWAdSkrbWN5cZi9svLG2h1y14gjJWYHKDa01i7VuXONzKye8B8vCNTr5cIf5pHo2IvO81Lw+QM9J1XeCbnWGtclpW9regeoa02K22tcw150LHlYtevbMoXZc15k8S6tg2QaFbda+2ptr2G6MeMOdmTtKjv1of/9fvAIClLcyDeMZwar/6py7nE7TZLHqCfpPR3ntdjTl3knEhGCDWkKoOstI1+r5HTw/PuL5NZc2G36gnltNRFeApmvadazK9NJiMGk+q/EneUD72sm8h+d/wt98w2XkD+Fevfag9hBytSZFOKjGv5HMhLWl48WvejnXyDNeo02jTXxdJU3NgjnaB5kNlpCbAT179O5m56AOnoYTS618lcjgWuF/fVLwqzBy847p34IXqwjepm1BBa8tVrxp5oIdTf2uF7eaDlZXOcfbvG53NbVwd1Ep5+uKhg8+PHjX6nHpetdAwKqdzU1yfI32ht6B8KEd+FLyGn/2S9fO/ezMPGsfpgRbEmu/9AJ0Dr9vWHkjNoMJZi3LL35VEWQPQuRDfA76n379peFgj6NxtsYrgzHQLx61NXpysJJttZ6oN0fTIbJVe2gUzPZeCbATX/td9/yOyYN4A+EdLwerZi5TXbbphNrDnh7NIBeI7iDYn2x3ZUDQLSNFLK7/rcNTLXO9HvG4GnaCKIa/ZT9fZlTNrLUhXfF9v57s4uvSC56U5TSiX9Qapo+/0Sp7Fa406NHr9JVpvDu4iSzF7bD8f+VZO4cB1HopH13U6ti6jxRx9TuEqOFn6OIbSEGeeP/33gntuLrbRa54eDC9BIDS8f0R6qd95SIMvz02glUt/IefSEYhOb9zEYrMQol6nrLWkrTP23/Wx1hj9pvYqQffV+szpZ/O+Dgsrdn8cd7HLkbU7t/8qv/trAnFpLS0OcTn4T+VhL+gN4Nf9bf9RQZJruqLqCw/oZmwf7P4K3JhQ66BGdatrIK4X20ZWOpy1xiUoMjmYPCBrt8R2s94ZW04+VsO+UI51NdTSNwLQPA3VSeChGC/L0AsNww9zNMqJdw5ODxq5WB0LONV0zV3+vENl/x0UNA+cfHL2QXyNSz5BAX/i2o/8srPGHjtU0z74pJfuP/+T71qZXgc1jOGT2eOznXPRJ9rXuGs4NyOkR/jMp6N02Qu4XJu/6qAp1rlPSZsCAq9j2lWIq1EkvKySS7fyJnabnN/cKmKvTgvWZl7PEaQe+NwsOGeGmv/yy96oJnoD+NrXPKRUmuckEWogEuAq8vzynUfhk5UYhhG4tzmNOiQvPbE0zN/5OkjTF7wj5Yzi+6ZQjUnnNcxMrtftOTpno4g9+1218vU0+WWNbrDWuFHlyterm+Skd3hCNIFqNwo/+1Cskd59TjjW1NIiakg3Pvkt29qNETwfow7d03sz9GMReV5NY/wG5PO39rs4vE966fm3//JdE/jYfYn0VS/spcbpQu8/+bLhGfu6rWs/dFmun/SYOixNRK3PvaZ9brmM1msNDPF1rLJpJes+p3sXjSLbS5/hTwYbJ7LGjpmo3ibIVShm5roe0DrP8ev7xwC9AbxFf/JPcRV7Y4NSO14nLSeco09B17W/wxqDMo+ls+eFGd0JTS0YqxutSzIH/AzFPfql2uLzD4E6n14MtNuAaDs9xWw2Gr3Mm8oNiq/DNT0AeQ3Y3vKuY4CsMX2z//gAI16Rz1M0w9Vx12e4rvk+7HFqglkLddv9MLnmcO+57cp1f/+fCs1ajufqeh2Xn/zqy7giK41sryW6iS1oqXDiM8RYFW+GNOUoZl3uzbODNQ/tNVtMkq8uTIqRZkCuhAOnu6Aw89chnwLUY6vxvW1eWstUI0ztRo3eg2ce+NcAJOpOXQBwVdA+sMonxTPjoyPbF0KxLQXR0kkn0nTztn7hw5SITXYdSE6jY2C9cdLvCWHlYqA090hZo4zH5L02MHZq4KzhHZb3G3Kk09sPnPdPX+WjiY5G7RvXfmdLgUzl8p216a32/BA779hHb1B8HchZ3uecNXZv7Uc6CVq390dnDf6nftgdxy3zK0tGtCmRvg4r7j3Amyr0WtoH0mgsoYzT1nODFXzOV37X4Sgn0pZa0k11H9a41qa6qWkHnTTU97lgUHXSes5ld4zQFnD+xbMO18xgvnJ0/cUUvAw78HuvS1SeruDKH//qH+3f/ls3HEdPgofYDdNyTm40TK5XgRNCTn73yqiDf3ZegJMOS2zjvoV1o61cQKyxa8onNL/Z9pks63fvtd7MpZu+Dt5b5fuEOutetv5EQQ+Os9bZz7V7hZ5RhGTtpw9wfLl/63eN4tbY9wDr4e1hWvoMxb3OzCUteUWGuM0H6FcN+puOz3j5+ef/ANXUb3bWUDZvaJwH913XSipLV9zIWjXwqeW6dQ+MVkfYGllVFNh+6WcvNTQvjk4N14WANVIPZ6sardt1wardkMKGa8xlzVHMGi9qDDe+1Jpm3RVvvYAl9SRrrbPz48qr3/yYiW6ShG8Kb3xOzFYocDLKOE3gPtOjnEThdeTLRnyQWLnOg/P8daH0cFpjvrX7pnG0vmFcL7HOlE6GFOJF1Vy24JrfImtdHd1V9Wt94KSvV24k8bxIEUthXgtt31ryvIy1f461JvZfXtbq3u23N7ZrgfsvrXrVMf3A2HawGpzLruWodO9f2vLvvf3K8bNe8jRvAOpznXk2q3OFr4bXt8r3ehcvI9jVYuf6Gey1Xpt29g+pBHolBk6ZHFnPwjScAfI+FfTXLARClzbvSo1IZCn23JkLyGUriLCd262+OSsyXEOv1nQ26wwPfvf/9cNXr7xG/9Jvpb2Dk8C+eaEbw5KKNDXi5SVPdD6pq75zddwfcHNlNZdoYbnkyvSyxGdd6aNBrHBuLACnfB2G737yu0ga3Wheh1mvVzG1qXdSseE9KExfodcJl2Qh+88nZ3d1zm/E1sPqaEpwafeVYs3t2LVBPKz2j9P9VAPn0OuqnBiRzGNXOmn94uvnfdjt13z8FyjQHFmn6wEm+1dizLbJwr4uUmRzbQB2takXfhOZS/PXMSn1TKo7ehiq25fBfaZX6lfFrEVrc1HqxYvz/oG6kMNvjsjfoTvcsXNq1XNQ031VB31qsPXr+YLvf9sTx5W3P+K/+qtRpEYdHOF3Do6DZlhGXD+Awe7TKUf4088tg/XxK0gPW2q6R3OR23dwbc2FDqvjrs2D0HFzjoAYc63ZIa7OhdfvdaofOeXrUFhz9Lny15a3NWeNZNjhUZg7f/cnoOZS13GNWVMnYwE5r99aDlajW/Feo033nFjqP/On3UFwXZzXaW91W2sPonZ/4Bsu3KxXvdqPxZQcY8ZzgrGdAVDuUzpica0jFyvO+wY8g6e+eSibA/K0Fr/yqVOIrPMDxcbWaqFIz+e8a1dfH3vP3WD6yzjHs38lfza400I2MJweWnjnbFtHDq7zOMrhKNc6IbFc8crVV975qBtbMo3WeXSfOuYmANau/urLJJ3LOh27d6B37KnZrHysT65jrwHf83tOsD9E4UDWIp5XOesjNS9j9b6wGfViDq/H8xVd2PYGJ+2CU1mnbfLukPNk9nJfXqtrpr+sBVj++e+PfdHT/O2/izlc5jXntefSW774cy5wPahesXKsDaJyba9jy0O1wsfW5Tzv8Lro2G+adV8FzrmLO7mx+xnRuL+xx6r3YfLqoVfnek7Xgayhrfh+s+G+F9HnRhIXPvDYU8eVhx7vRMELpcjNtdjh6eXcjqmJFnKvV9pzoFC+4HgNn0zzRk+kDcQtDg0v6a1ZNe1IA986+c21D8z1Q9XzKEV95/Qir/X0WjytYIX1isdSZ+s6xwNymOZmnWJrgszBWsR1QK/SSt/7zxtBeqmmfIYfZgOVdDp2LF3z+D1xOPW2/Bqoxu7xOR9+59Pq/ObeczWn9ctydF6xFN6noL10VVNELltr3S1C+hCuvl2DPXHoytM8sN0zryI1xBqeNovpXm2nXjV+qYC0JBd1yltvrAdX6FK75iV1mZBa9QJdozXUyI8kQauOhx6rT24P1xuACopdRRZoIe3TPDdDGndKfhYsvyFXvXfO/uJ8scDkeJWfIa6MB5wo+brBew7cy7xPWHHqaR6YQdMxDl8ZYr0n4L7uMb4y+83rnMC8eq08yEf39WCu/OljvQY+jD9iDy+VdemDISPbAiuzDufEt4awqRWXs/MBsdaw2eCWWvhnveLH+vjfvdsHjtc9k08ZOR9eB3bnrMEH4eIDr803Pda1qZPkBHNMrnD6AD842z0QW87SeW16Vgqes1jdd/KUn1p5rC3w3JSf9A6UkymrWvE1XKbhWnLYSXdun1+MPPDQ4/UJYL07WOLG9teFzmYaNLUjHt/W+nDq1Y435LlENZcZjF3Xc9TBXGzlMn/HGMXMxyClkX4L1sLtuV6XzfDYSMR1HscP6+rBUXrZ1oerujyoIF5uVtWYmjr15oUGbs65AWXtzvc+qGnWfllFK7bf1mbgvpfa8nQzVbDdVFj+5N/z7rrer/4tpCfYey7WGC5zEcthn63unPhcM5uV63DV2BCrHf3sCOOVLvTke79gVYCNLyN3Yt4U5JWqdFRua5DtIpWJaQ70nM65l1M0IadEt6yjaEfoSROpX/GjI0OymbqP+zt7BWilr1cWokXsflvFRO7TnINdI9Vej8/oOkA4bzbZOCQ5HTmB9vfcbFicXNnJq8InS0Mv09O/jP613uak6DUkb7e/C5enh7mmtr6sdHDZf70gG+7Ve6Cm42BxAF2+s6dfeqzzpGjfv1573vumBdbDOeD+zWksn6I9n7X4d0Var/7Y4/gVH3WXtE8Hq7yeNceC1kyuY6A5uQ6sv2L3cP0IyZfJJyeQNdnniKYcfXVG5ySq5au2adnWOe/9Kqdj123r0+XoNVkDYZ2fqa4RJJaexPCEZVSjhsC1YNUXNi00atYRyGM95BV3TlPar7dtltadGkr2RtSVUVE+TkBwxO0+QiYKdGHL7iN90XLhVn0vdBHK0UEMQU4IfI30D3++ESRTdei8sV3+vO81EblP1pC8b8JcxGKRlbFqwwU362vSfTN3vcgrp0WIc81ah/MbWKs09dIDKVI69+/ppJGxnmBqDevX3LaLjw5/Hsgh3fMVz7/l+JgXnf/u/9PhPEefH1HZbw9F+Mmbl7PvP2LlYRa8B8Oy7SGE6yF0z1kHmcwpijU7n74+Bl1XZKeFuf4NrUE97OtFUJyeQTRbgXQboTcE6uulDru4YJ4+7iVEUzb7FyTRM5gX4TZaiclNaWblrHQc5jxDT1iuavhS2jz7Cfb58BwtiOsbfs9p7q5VseCTpF5JMS50Uzs0Vd5nU+b6nYWsrHRty8mF5khsH7DP8mqjuwaIzzrLy8Pg7OoxcSWjMXqd4kzuemtbrxuntRVaz9rCuYqa6dtsNCA6cR3/yp/5Y3/3N7ZPFKr0vnVDKs7ca44TioKdPYn0zUO09rNq8TTgdKOtffEFRcqDzLLq3e6eX5wd7J73ylpU0AoJ+/prDWW0HCz5xprbukvAWhMdGu95KstJJb6GomJrUvsmfe7rnIpyRpjNoGte704VzGQOBUy7ymsi6awXzwPUC+jM9IDLxRf23u3owuOQK6MOW425HmiTG33zIulHjMea+uHspN5klE+fatJrUp1URQzMqFc3sV3r2PeH65C5cVZdcO6z7V9Y63O0DXSTY92eQzz7KhaQ1ppyfuqgkoL/8xL3CAeG08v6D7r7yvGpH3b93/rb4fWkxx637djw+dh1+/kDRM71BhrmkzPkVeyeRKs/5WpBDbpCdBoQPo0CjHVNJCHQyDb9sQB76gEdeUG6abXuB8+24oAwK9kKBfXv3FpeMerBqH4d81yfz618BDICQg0RazI3id+l1JbT9FpAObOJFkvnwwiHk29eRozhfDH11VJx9rN213muFhVCAa0fW/n8rKXcTOZeevi6KKnh5XsuraFrHKPu9RTEYfVqH47DRYz1haHeFkQzvt2p8XmUU0e45rOuHkB+HU6xvOzS1vuPynsCcL/yZ96p3wF4R9DHXpw6sC65+D0Cr9cKHXP9+/oAcom0rta4qjPNCW0TCiWTnq8aaW/N6gG8JrmFzhU0dyc4er0KDXzW4Wj1aKuaOijUXKyZLhaQ0zfeik/7h99iuS6hoM3K9wRyd9uz5BNAfvbcF5Cu7uETkWFeGySQgC8nRNXwd9qukSTWvurx+7uu19ccQ+S6Cf1QmMclGo5XeKxe1jjGegjyHbh/65qz9QnDQ5N1RAMUY9sXpxEtfOJOYgh6/5k/+w+oka2kz6XLNVSznRNe/V1evmlBc7XFVYQvdp3fDBAL8KKJfe6dV45f9NOf/rf+dqSvO+b69jw1sje2nt+JAVnDvj7AMf1m/2XM4fDlfAaQLz337cZTRywu+WQNayRoTaGvnwDvtGxiWfJB9ldJPbxyu7eIdQL2tYwGHquv1Cksvwe+jgW1s68e4Qt4df7K9EqSgsrEs8qeRLy8XpgpWQ+rhKnv/qSirYNi0JJcaCmqbvoL7rFs0MWMTqlDHVKvlmDyRWTPnYvE39FTFxZ5F6dJQettP9hrztl1Pq/t757u55f1aOhzhuuo6T3Er69V028a5IvAjh6B1rH8HdkXlhqOYLf/ycfeedx2S5h3gDnX1nPU3IoWNN/GO0xED6/lemvu9Krhi4BIdoE419O5c6/MmZyj1oyU81cZJzcUMRr7CVe/tSvgfPo5w/LcPjGN0qlQvr/TL27Lauq0c8tSq96qtLqC54UtEMNo4E/aDvHUXPg2l/WIlArZbuuk0RInrZpZW5+08AXdpMTie1CrY9C7LCOtPmls9VvOsD7h9IzVoAf1KFx8zotq3/vxWsvr/cAB6Rj9ol+4rI8BzBeHo7792vhdn72A/W81pt79rd5r/QYoWlaqLQYvvOfm47N/xp0O3gmkv/dHU6Je02UeUwef38wJzzo8zrVd33qj9q4vzoHH6JRPTUWcm7B9ytILk7rEsnCK1rrEZzgU8OdeE8qrL93rkIRKbm9KDDSEyj3N+q2UL8EOivmih9qedTI1am2LmHwvhEpnm6+YzSQN5XyfCOKQThTcI4P6WdVokidXtvnMmTUGiTzjeY0eZrCK8SF0UuhHYOxaXajEHKTNvqKTGTjsNU7O826EkDnka3Q+Zsvt2Hm/qbi/6D6NGuK2Ocpe29P1wf6geZjQ8Zpr4ev3efXd/7p/6+8dIOsONvfsl6im3tbgFVvT+ydGp/2jJrYme9D1FNPQfdcanL6+6olWwzJ6LjVHW3p2mwEPrrMLM7O027wcZh0VbL20Fk1u3trWCVlTQzRMjW0N2X/2I9/mpKOsL+PFBlTItN1orEHTNLdq9wtsor7CaU/OCOkNg0bzw6FfsgJcEd0L6KIqKFJwQt2kNY/rTNm+yz2HlO1bkxGI14BlbRuPlb/14qVc7LYGDu0Hw+urXiVnifKVX9Y3sXP7edI5kaYOsvAVaP/5Dt8a7R+OGL/18lpjVyBDK/Uj3nq99Dk3Hz//x/hjv9cDK+pW02dfBwpsrm00INdOBHuWBoKuxHbdZ2EPJ1d2eOxFzTzyos/z7BZeQ6/2F9lgUWVq6P6vXDpoDy2kZJO6D4hpC5E+vPo2H0xdsMWeuwvkl+kJOOcTcMwQyCnIjeeMTK9gPspUuE5gfxeqEKP8oPTtAW/HTHhsbmDmSb16Zg5eFXqYn4+6mcNS2X3tdtEQiOWgo8ce17Hq9fBMD2zPUVCsucxpDaOtgW1/5iXWusI3IZSmSNPdk9FC+46H1/Vw3SVGU+Ac+pnKHPXqEkdoOy5raWtr/MZPvOu4ufPvLNSTwSF7JgHkT9T7QNMcc9tbnOB1a804Wx0qKZkrVrX0cl1yGlPDcVlrmkNTg1nE4Mi45+XP6JpPa6cOZu3DoNJ65430ybyrZXHd077Xof71mh8fJKEHX+a0xp5ENeWbq/tBbEECDYuCTJCVKFfuNBxrX0OE6MHkeRGIw3ohwl7T/qlnAz814dWryelfd7reSHatt9Gouevo0jVPBlBtDZXVOXCv7YRusedq/pqxvYrQm5RsjalxTv7Y5mq0EVTDNSHfsb1+8yw3tWaxeOwkyuxn15poeu2p5vrkl912fNyL3/Hv+1/Cc7jzaQ56n+6l+LWuLdaQYl08cn1LCtbhbdemrj+uQq5dvfJQXA/Sxmd0rbieDF+eycrTE91ap1I7VsEpn3XuFcPFlDW1NMHl/oXivJZwXpN4DEVdh7v+IJASPklA3/FaSIWalufm1sDYM+ynu/vCcROFd6k/ju7olr7hqOp6gXWJp1+9ml/r2HtvqLr1ztjaMu5Fn9QXoh0dCucYeRBSJ74OzVTkebRWe9LJarPk2Yco5yIseN+2Pl9oZATNgqbzpLyOnrfgfAeFPZeeADe9wORYO7lykwN4t9YP/b/+E96ZP/V3LW7VRwavxX3XPD7s5yUaUthVp9E8dt+Teoi1b7Me99Wz68vZOeB7hajXk+LCaMtmnrUesIlBhVMz15/AXnLGtn8GQe6jErMs8cr5MH4JvEt6iBD8oJsH5PCwyFzPvVRsCpWUB6JaeeCT5MWFXvm1CIw1HfNqWWbhmJuZ1XW60XMwVNjzxgWcJNVvPXoS8TXUXzWulbJ96RitGa34cvjauEyc0HOlr3Hlij9Uucbrc0wfdV31NXwTZ0Mb2IteXStN9dNx6aevmpLvGl5Fek/F9J41H740Hhyw+bcWRVHXFvyqj75D/+jHu4Nb1TfrWD213p5nR77xICOrfK3ZeyDK/vvXNTTMp5v6MvAhNO+lzn2i26+/xXIUGl6D68nUVem+Rta3OFlP4xx6ArcZ/RlTILEledArqElboXr3YC00PPMOneuUdYr0a0XlUJdsAZ9Q5RI3R8MWRm9d5+Q5F50nM5LHTJ5wi51bsa0v2OLMT00BVxfQm6LNAJ/89JK9toewnQt165MFlb81KA0MJ5UeKNq6v/OK0Yi3JtZrZLW9XtX0SKwBk3nwax14nTc8B31A6g3ndm79XwndB19MYd8/ttb/kmff/E7+mf/r4+Z6T1xzrLVqb30OZ+28lFO42dbrXDi+RDhp5XHtGtRgtT881rF6Dno9wHrPp3qczmG5dhNK3QHohO+frX9jWtH/ojarn5zK8VRAIA+4vefQ+srN+qGtbohuHbZedWlcnGmnWNx2UylL0c71QQuIbxfQyxeaoDmc1kOpV4WW1Gv8Gsr1SYDwQbw9NkOsoLBN3mvNflKxYgZ6j+xJ65VHfXjPY23V9Ue6tQ4jvQEu2fSbIQln171O+1du0ypiHfbcEwtjjnrNQVJ93Nd161oB1dpt21rqWrf25Pqba6//+afcXR/jRb5b8I8ARubJKr1/R545mV6j1qawibV3kHOxmELV5PzOvnQsnISglNsc0c+aKlZenChrdF8aLe24g4bWx+jstLdx/46SA3KTI8jAIGyxTB3cv7uyIC3K96itTMF1gN51/rPAQuccw3esYzevICdk6Tgy6XqA9hppqBHpRcndYoVl2t240sJrznXSVafXgrXmlOseYHokr5xU85BEPn3Cq8KQz8UnH2788J2JmT4Z2xsjcVsgbfdXzAutosI427ngNKvG9fDubwVH903eubzmEwGvcnfNL/wZdxwf8cJ37q/7Ph1uqzeArMGW9TGfAW8bf+0fkavK9j1geL+9eR295rIaiuoF7xjsVrp65foHox9tHXpaM16fBpxIC2CszzqD7XqVM37BXbq+XD/0OK5RnvTecu9fLjWem4pCWfkjM7/SUl/8LoDEdMvJNdzUDeV1bv94o1xq2rEalCZuYVzRRD2fW23YeKzmcDV11/cNhxSu7+5OZhLn4qpHghopAXqYymaPsk410LuDdZ5qaS7PZzuFdEpPjU1g1/XwXovnW+taNXut92LONQoLvW84G/cIX4YH9IX3XDn+nx//zv+Jv6fDPfzGwd6foN2sSaZvaq/X8Mp77fBdAG+VObPsp7xqw5uFGZ+rmXB7cPLjaR6eANadHSnHV5Mz29Yr6wr2PZxQJSuT+rVucKqsPtm/hnJqMnOGR3ctLvdfX7VujXr5dwE64xuqm+poJB9DrA1Gry+rPJe18rGdZeRhxMhVaIU+WjcPfdbW4aLvrKnsUAXXr5e4GfXqvPabBEZxB409lFtrUEkdrIePvVwHmc7z6hrlMsTF52jgzgPOC2L2v3SBdKLXdZxX8VqLRvzur8LUV9x9+Oj/Oz71nuPOW2HeM9x7h37VQo29dt9E7txHcjWnI2PW0y/VNb9QXF8TgxseTY/JlCfOjAa+NMZlPA94CNAUyDo4zjwYLYl17IXl81XceuPY8rib3mEdt72t5cAvYu8nv9KpkZc0IFd9M3jktnm7uAnM+HqVVUXQJ1sTZKG5AY18vLyE+1WOKSUph81qCRc1CMilr2rsa1z4BotaJw84B7fYVYPe8Tx4dYgWK272g/WaUquCgh+szqM3LeBqjIZ4CfCoN3pNHZ7Oazn45DKfXhL3epi/Paj4qotTuLxE9PhVP/OO42e84JZm3jPcezsrq7WwhppL8/eatUbNX8letuNg5VWHOxyx++wDqFX3M6jfH7708losdi49pt/Wp1Ou7XtSrvrLmbpr3gS6D5Q0Dq3RuvjO7Dz9Bt2jjXJ7X/WqEMa9zKenRn2REwXTzvlHABX3RuDkWZgJlK8AP1sgZ2tWX81Z71wo64BzQHkLa9iEnzmHu8jv0PrdKzV5oDg6Zz/g5twfrsC9e/2cKYdTr9EnFvhB3HKQ5JXruLDWzFqNrDWp/p45Wvty7eu4rCaS8blivllPW6QyCsp2CVhvIsfx4fXg83f931vg1wBu5y8P0DzXUnP7WgEsyyI6Dci5/jDJtW9TnWjIA+RNWe+8xqZPHwF9fUmPptcFpNr7Tb6BQPnuh8kIWHuZTOl1Emwemu4fneYqhdbaa1hoUcE691BHtFDU0bOtZb0WXFDauu4dsogy3AjAfC9gQ3j7Ora/6UizjuLE05t0jVXv3n4h2RanPSSz1jQ9HXWvrsGSu/x2JvT8AnO3tgcdOHm40xOrdXchc9eYtRRcT3V49zZ6fy23n/lWzdKwfxzGWkt0oJYzNcB205ZVXtkFdme7cukzvTX/cTyrPq7/Fz/37uJFv9fgHwOyZiNrNtP7J+Bcdw6kJg9KKuSiFeOX9wW/X4sNTaenbH3tbxyeX6FinT/lt4RALXHWJdejOQYhWSTW1dneWkmzrVeuchakd2q6TNBDL3j/0bpJY3OB2qtRnS+IUyHYZyjMdy9p1mapU7utFpe8NLO29pES8poa+q2bHGO5C/jz/TvvRjaugM+N3LkC0b5OXvKbkza9a6heYc3ZXMbcVDqsTwsc14yGZqrkmttDc9VI3K10wM36da67dgeUNaDXjRar4TUF9NDA5xWtuKy6+9SL3sz92+rhf8E988HwvYbn37VW53XYB14fBPdCWblZY6Gp8/45bx2TTwpUOvsHHJP2NwjX78j8Lha1ML2smb4KO+52uBqtlT7etqe9BmR+6vCSowYXTiUVzLOhGsNuvx10AZTmXLLWNSrX51RlPUktgJoKshhnK64CMZ3HUQ3u+BxTsfLqKyELxxr7JlKqeaUvovNRWZ9e3BQc2bjXRpgbRUodFE5N1jL5xsyJP3E5nERxrL0LZHp/FpUffdd3bh+gjQThAD4zQXl0v55HNnxFGhYUkltvJpP3l3Ig9bCdFn7Nx955fNyL37Pf8ns68G8IrPltgdzhy+l7zGvkVcjtVCCePZeJ35dIMJdr1kdpy8093JheBfkTL34htT1ZLpbQ57te+4OePsqhnflb43SD61+81tFG0tXPKUgjnueUuOcRLX+p3WqP/QngJLpQNKShsSZAYpG5FYN45NbSvTDpmQK/M+7hE6iDQleS0mi10s3t4KZXTpHX6J7lcNJbr4ejT1bWAGXPa/B6zpBWtWi7psZ62NxBaMf6dQZSY7/nrnF6YHt4nvSt16bX8Dvf9HQPcr6JrC5ro3rg/acGvf1PeMltxy//qOv/197vDbzgbv+qxprfKwRZGxCv0Oct8UlTgz7z6TAxvmS9f113CGJjxfQ1y1Ee/VhbYuCEua1Xl7Yu87TfbNYAOMKe53cC6wfYvUU6LPQ6p7/hOSQQ1l7KbnPKch6kty48vv5FoI5skeIXjYH1zTVlevWHjUIWjb51ZVOrQYx3MZWtyWg8d/UkJp9pCuoRpNfOtuN1dK+Od51jbB1YbvxG/LE8Kdva1bdjzoNuvuYp0YBoqwfNoZC1WONG4qifupWXL8454E9j8Bsnf63H1426Xed+IP34O/7/xafefer/3gZ/psDoa1verONicEpQOM8+z/odJw6f2iZl9/u7XQtbvudr2PSbqASJN5DYCK/O+xLtVkY58N2qD0k2ipOGoiksXMgWevKuG5SbTxDTT3xZXJVxPhfqHvHi8tAJ3V8xQzcbDTukSTmutZU+vCLDORqSE2Wkp15B6YrXDdxheqtew2vQPJ2SBm381nlP8M11AcfUWliHy3nFModz7tNQ7FxXqIZDeGmKwXWu+8ka9hdnPg9wRb2mHTMvfKfcode46ZmWyD3W/jSa4x/3/PzPuOe4473zO35PC/4J8W1pBc4P+7C/Q1wNfefqdWrUl/fufBePxlQdu93+MOSaBXGx8vt6gXIFr69Y2pjq2MT0wxRl2tzqge+gM330/q9BaT0v/lafhjD7vDGd9proXq99XvpWLm26tO4JjokKfohpVAFFIjdBgUYwi3Vzu2vScN5Q+9T20Enosj0/WxXl3sq3xgLWBi9GVhqtmUCszXQ0rZqiyPphU2ow82mOjtuCiffRuZwzaZqCSDw2KZO2vacs15wv0l6XM5S1i8OXF40j9ch17Nh9r+q35n73p99zPP8d/L9+7w285Dl+h5l99Bq8zv7RYAOR177WbEkRbB++dXPPlYB7ChKtO+/weWCu9XDAbCrKu1a9NAxUqvNCiJYRZz2eRsvUr4PsQ/25LuFreE2Z13BrarxSMZM2I6jn6oGfEfk8bzUyxxWZOsx3hyyordGFhSxjtQVw3kzGwqoVWCAbL/ek65Nh3hRROMdtL+vKDKegvrSnpuix9RE6mBuhxe6z1pwa8aW9vFE1V9f4gWSsOjBz91oBVmXMVQNMLWNiiQro8FlbuEKVWm+Oo+fLWq03t8C/5/87PvWu4+XPew/+ls+7gOfccdPxrNt7Bd7utg+IbZ3N25fb12nxgR/4rUYjOhlzm0YPQmv8IKxzKuOWjluH0QpI4OyQJD1qYFvm/n7Ygbjcc5msj8QudbFiZVMTXgyH1UtH2/gt75herKNclZjVbe+FXKCUmWi/6XG5udSuAsd+A1GeA7XtowukVY3rWAh56breF8exTp4WbA6oNtaOtXMiiqSvkjuSt6ZLpZOSmskb6ZEHiYKmzrWF/RxpKeT1kisy/VJr36qtXFBejbLupQf6VNB15ujfc+xz6QjWOaT2//2Jd73PfsX/6fCy596iNWjNeD6lMHK44tmzePkK136cUB7fLyhqpSjDXq0fKO9+yahHv7q4EV33QlgUKte6fyqdS4+q2OYZzQatu0jd352NxrVqOH1Y99p3lFvf4lpZ8JrdwIwB28QU1r1gU4ki0xszJ7dJcfJAvJxobzqsajSIPCnuaPWyRD3kuJ6/c2/kOyo6r0NyVW5z6ehYbcb2vF3H0X0UyFdeR+KNQ4dt3/15padM0Wvt0pRLpHXz6lgDrmO36TUzRNr3nvHcm9ecB6lSszTD6ZXc0qlW1r8g+Rvq4f/0l7/r/7TXe4qXPWf/tFEnwcvU+nxOao21QO2CtBLO4+n8Sydl+T7nTbTPec1DEM5OzoHI8IW+G53Da6ueEm7zFJynpkbz6QGmXlj3+vC17vpq+BomtCZ9ZFZdgW6qLQpfudVM0JqbW5Xug3zn6t7qjXePNZmmWmJVEpkbnQPHTQG51VP9iVNb1g8ImhTQkx643V/8Dtda56x08dNzCpcO2O1NcnIyTx2WjjnavcCu47j2wMhcNTD2bFODzfnYRpaEynH2T14pwfkLXVnF4WQTewRWXj0+7+PuPD7zp/34P/zgQ+sNIG9wXvta4KyXayPCZofrbHXipLEwvZLjKGZrh6vvqpmjsPfTN7HyJ7vputvkotMu6KHXdVBJ86Xv/uK6hib7N0+tb2B2GIpkXJc8iOdUJSEio6cSZfkyyYFPACa7dyE3Fos06YX2SYUTTWw+OTBp9ZFjSIO+YwGNZrJW63CRrfuuPt0TnQlhr3ecGutTbx6th6Be6+d30BnrypKb3qPz2nfQB8Z0r7Xg8DK2zT/Dde7Z2tL4o/6C8urF2npRBejo5KuB1+7fgb+qv+DzSz7iffd7/e8IP21+vaHWrfuhz3sxPmbd5Mpmn05pt8oWbw+gpc55QC11Um310ipG0QyiGq4xkRw6WRgJ4WQUwuvbpFMC6dTLSy6itnnQZ31d5Dm9/9FwwK8xvEkOC5Y0ShAZPcnF15cy3F84fRI1HC/TTgEvKaEcFjwPj2UNq7JB5U2VcVdv9nowL11rTn4Z92XA9MQbrxBLSmtePER0izMSmUfnGNBjO8MSk/ewUD3bal4lm5fGPTN8YSXpOkZ67P72yQlLjle46Dvyn+Ysn+VW8Gs//s7jl3/0u/bv+b+38eJn33zcfZtWzRJZoPcftNuK2Rvwns8PtXVREHvowP7rlQdUeg6kikhvU9saWhO6Q0H+SDWB5oBn+DvvVlDxhOXM+k3o6/wGMo5AbWpWfd8/UN1pIH1475HavGEQaw5I3IK+uSmhpHkayIrS9K2RO/n94uWkgrRbmg7KTU9pqSFsrLqNzxy7sKD55JDKa5dVoufLr/ATAynVl3Wk3rWsa3wdjVlbBi+3sIr1kKCvCHQ4rLNedptr23FT1tUrkdD7DwtWL6LeQzeRL6/rKvjPPuGu4xd9+E/cd/4dr/ig/u1ArdKbyHq9dkcx0ngrZTmXndL5ltNEF7TRw1iDUDe5Q4Fzxf1D6DNe+a5b2LnzHBx9/fT4iuMyqQ9OwcoJFc89W9DaFauqfLEcTtDDu80RLL+d7LGgNfHV8+Vecy8I/LJ1uOY3gCXZ1uEblFFBJd3LjniJzHuIEVKrwq69Nr+4yU1sbi7gxmET7+tFSOhPJaTqoBNRQ7HrcZQDbQx0i8BDF879ypbJOmyVWXYGx0LXaC9NnOqLccrrX/ka/QYWDWprs8/Oj61RNfwN3N/8yXcdv+AVPzE/818PP337Nwa0D+xp/ZyoNuyjDuLnZu6DuPKnC16hy9d58XdNoDIxGSu3kOtf/KQyh4nQWtv4HOIYquqQefCpWTN2skWr0nqQmn5i3fOkRFCGfMuUr5pu23AtmA4l0K3lsX4eY+4RBXBN7BsHE3mNgvs4kL4I6biQW70lXlzeoaTlMKqNS3/lqQvSt15ONZoXGZg717snL+c9p1HNWHf7J74QHsgv1xprOcnu5z36PEtw2rOs/PVxH4hjRKS+9nVMj4w63HnLTcfv+rS7j0/5KT++v9X3jvCK5/svBc1Wct4gZh/1akFT2hic4jp0tvuIVNMuq6hi1Vq7nzvlFJObgtb0fVjulKSmERoZLD28LtGuxzbhPqv3tC1YU6PILtc6TvtnNOeVeN/pHwNUptLKFp/U7B+OBGFZfQKYjbc8E4nvBafBnLDC4qPpEX7LGd1TXvR0ZHNdl+TU9ZoylmB6+d2+a8nV1+prNrCuDq0B891CZ3vxuz3/QaGy7TOooqdyfDWvWCcbnyo//AbnoueuSFrQsdweYNI9QGr0C4mKFR7PuePK8fs+8+7joz/kffzne98N8CPAHfy34j4ts4deesec0b4WOmJbFwKktmzovoTW89Ua3dvKkYka+DpIpuK+R1ur+5/+3adN8+6vZwWOGNN6/LUeUIGd7k+oirYGNXkTucRSpbbsLKrrVFscX51ztzqKa6IcvQHsD37kLqSACnMgodICm6/XIqZWOo4uHYiX3LrV231ShyYx8Ltn8tfHTfw5AiXZgyjr0xdbjnwLaSxDLpDHfF3HElMj21pzjpdfh+gJuj8gDN+djdKcvuujI85QxuvBJWIE8fnDNn/gs+7WX/D5yQh+LPnIF97i/bHqdWp6nwveO9axHzQHo93rc34aK482dTKFpZ0WkyRnO9wS+QjPdUViQnyepTzAkUkorXWYmYOqEhE6633qtcju2cFAzftIzxS4R0/eDNb10dc954kAx5yUHMVtUTZGB6TOpR0x2GI0msPWZA3q201e4ES0LlMBqHz3tP7cc3r33IrppahBQJrGSvRc6od/MYd88+Y4dk33xnVajct3NKYEfrDXr2Vgdqy5DMXy3DPrdR/cpd/X+3Neeuvx+3/B3cfzfhz+bP97go+ZP4HI/li7B+AByj7ZtxTevni9CURciBsuGUJVi/A8kxRaX8JIsOoj+Ulc8LXV/T8SrkO611Gpcx0xGnnl7M/PZjxvgXj59YJokflUOE/fy3OiGD5zbZiejSuIqOUTbhJqBY8vfvlMZJ+EhPbhGPK92WBfYGcrTuB+sybLCl6XJTqqzwK+K1VSITorxXRdLDrPK11rtc/m0n54/OI5L6R9MNyzsM8L5691E5fA+1fg5OgZrIVE5rMEOHedXw9QwINiy5/r/9Ufc/vxWz7lruO2n5zf+E/42Bdd/MWgenGOxc1OO98Wx/dhK1LQ8H2ch8Hp9FJ9n1/Q7QQ9JEWkpmRKirfbvit0pES2Zqux5pERPCdSNHLVWtgW4P1c+7BSpyy61u4aXM/b82sdi895CJa+bJnk6t4qr/uadJCTDrgB925zQsumHsY+9ekh43qhhb3YDMDNrH7NyJs60N8ZNgo/Gvny7AfO93zNa3U+I857uZ2P1nPlLxVpPfA9gPIq6nNhurE47Z85PGXZlXPsPqtHr6H9IBr5HT/nzpuPz//0u47P+Qn8Az7vKvjbh/x3YwucD+9nsLk5B94/0R6LkNWtB78Vn9p0FB1wfR63hfQWL988UI2d9tMwoizE8dT2dT8toLTzsLaQtML2V7tiplmBsF55Y5hjS0SP/sx3ie7thj1v1htfoMKe+yU2udaUG5uXsTw/CIqa8rtnY/rlZsBtv9y9T9YoVMnKZ/7mRDFH61vLOrwW+L2emtZqLTsq1nqs2+He1s8eddz0Zfyn/nqI7P21RHMUopHPC418kDfCm46P/uBbjv/2s+8+/dba+wt+9ofWjwFzPr2z7B/kDO1HwGlWjroK5uERyt8rkHRP5lk+B7kD6siSUw969zUFuKpXcTo14CC8OAgOitsTck0D9e/FaCodQnm9nS44l57ii2q2ic0WtOfpuftL1r8LwNE31og0+lW8ikj0jNoMY49LMYtWZEl8ta5h3n0HxDIbF4Tq2jkJ+OAUnOF+XiSu4t6jeHqqlnUvrRtm7/2GYaEyeQOJPjnOn2oUWRO95s3a6xAVcL9lA2l5iaTWv7//qz/mjuN3ftpdx7Pu2NXvP/ikl93mzQneF8h5NHJuW7pfKwzoy0WsHpPYuIKuS79Uo7o6bPcC535CWlXsHvjpxRuDY6Dnhd4W2Heq0VEZWu/P15B1yL45SmKZfWE9m4sD1LZbkDv5lcv+3QdCpO9LAhlERUiWxHSzhc6JWLrUdqx+5l3XtQyLJpatmLeOxTQnvrjpHT6ijkdD4nKd0Rg6iQTk4VVjilp1q8AP4lp7Tj65zLN0BnxOKMa861gfhOc0Jb+saxwH6WXOe2O85Dk3H//NZ919/OIPv61ia98f8ZJn1Y8Bz1q/FqA94vf5gtLZKWfuS3HK+ijOvqpwdZ18rqMDmSPX373aaZy/eXleoI7tA/XqKdb85MuveCnNZ0kcpHfJaa4WNLwOeGmqAca1Sgxcu611TVaoXLun/QfFXSFO44gAQi8Ajla2eDt80lq3zUvgWudw04sNBcqN31ZHNNZN3Y6i/EdxrUPh0fMpWjkA7we2GLcu9DqnxtAFhSNXGLtpAG26vKMF8+4xg8Tl3HKZz64pRL2vIvgPdj+nHnoe/vPPz++/+MSX+t8HGNQ+cz5zi2T/c4PrWEDDq3npGBTX4LXnaKjzT96h0Xyrhtf9372ANVwPW8DRc+S6lq+U8wC+W6zayEDnuo145qKv7kHB52X1X4hO8zBmzelhzDqVX236mw+N08Qi8yk0chLiaygCnDDXA2sBvdsVfGJPeWH1OveR2fSdowxd/1w9QjBrznfkxrYXvxFQxhG+18/QCwu9Ti41OaXag16K+livcp2z3eeUSvn1XX/6q6braiSPefnzbz6+4Bfec/yq+tjPx/9nCvhtyyD79q69b18XW1+n1nDQeds/JbValzLXiOEcge/l5BZvvfuJ1uBQfF8fQI2uP/IiLXONusJJrEPrrw/m0npqrAfYdYIb4czRvazVkguavzVQbtnJwuyzNL53EcCb7V8DiOgM6Gww0HSJ94l6EXTHzyKs79xuKp/Fkz5LvNh5SBrWX/jesfys1fPRn+PSmi+rY69dteklZpCa1AFpJ/S8YPjqsdLeY36ldbQIS5ebl5CcBn7n77n9yvFrP/6O4/f+/LuPF9VH5mcaPuRZN+v/H2Tf2niDc6nzGK6vy8SF+Hp8uAcKquNLOXPXPgw1RHHo3NYrlB3zAqkaYjhEV+Q2xdKIz/2xCqSt+Zgr68m697UiFJ+6GmvPatG+5wGz/9SVWT0zX6NocnUPmpTlS+GFuKB05wI0UBotzyL88NIHtjfjCSE2rH5pwrHLhImF1RNHa0jP7aTtaxOk6VqNzndt+jhy/Q5CDfyM1tivg5cknOo3fva/pRVsMW8Y/Bn+P/qL7zk+8xW3KX6m4j96+a19bvb7oG2ojrlhoQjnvi6sc23SNz3XMrwhHmros0I+h+0+GlTINGakHMBrDZ7WmDUBJ+ah3xffHXvJp5x3u7D2zzdYc4CehNEv1b4GaswH1PnbSndLAcdzaUEzrAdj8qeNFgizUOU6Xya1AHdFQT+gBWn5KjtzdiyfA+tR5Ni5tcYdnKLL2ikGPgUCuqSwI6OkA6xy21zi9lr8DhZb6HVfM+rwES+85fiDn33P8Zt+zp36X3Wf6eC3A++6lbPjveqo81weXzKd43zKM4/wdF4bvibcg+v+AOJzz2zXW/eCEPWlLZTGt4x7DKqnHiyoSlHhu58UEXqbZJ8W0km4bJriFecOJSzH85hpiXpkn37gg5wrc9SS138MksZJavJ28x1rNjPHgmrbD2iafurh/tISFjxfRXx1g9RkJYOq05BvE0VqzzCnXukpamnFK9daBCu9u85lD51InpMoeqW0Vvde8F8k6h7E5LcBXvqcW47f+il3Hp//GXcfH/rsZ97H/acD/3PwJ9enHU6DzoTOBxea696uD2XWOYQaP/lAIdfA3xl1nocHFaUU7H3qi1AP1z7faArtTjvBtdyqPVv5KEQoIRaqnGjo6/vIsaXdSMYWuF/XlZuaTaK0ZTXDvuZK+KF3nV5l153WWi1MDRDidlB2+tGgh0JRZw6MW7PCe12QWorngbNx3AHrwJW+Bs/Q9CtHvHZqTfqORqj8FuOi84lsQoaL4/r1hrf/GFN2a6X56hUtmDWcuHZ6/2D2oTVcPT70OVeO3/6pdx5f8Avv9h+O+QBE/o1C7omcMp9PHEVtcu0qqq9cR12NPr8+guSA72ICdB2pf3wQDW0148xXgGu9c/paIMkI1IS5gp7XTeyTHME4hvrZKBR1sXatzfeWchVaXqoKZu0CPjrXJVP3cDH+MvATqCHBuoGBPZqUwH1te0HqIdoLS62PhnPt41Tt6AjrNbxYI5z8eppc4thdObbuFPvAf6m1Pm00H50Dc2q5rcEp6QZru0avFa2H3ySw4iUyXv78W47f9ql3HV9QH/c//iUfmA9+8KJn3ay/H+Cz5PN2+eAZfT104q0Dvp1b39h1gEgM/fA6lTlBNJT63vZ8SMV1jQxpWWUdRACKUi8dg90vdIhm7621N7HznJPZcxH2+1wpp5QQ3Y5h5LhxvskJ+8T4hKSlbyxNbm48FF6cX4EXBtAFuK7zEEJkLTbm1ac5bbSzaMU79qVamB5Br2VH1o4ZPaHmaKbn0xJ7PfGH29Y1Z4Dptv3z3f/jXnTr8fmffrf+yu4n1IPfJR/w4J8s82ncr1ER4jqcYD9pdd4Vb9y4i9Ol2L1KTatMUAvAZeha9sWRRB7+ipSuA1ZvGJYb6gOL01qcxpKacy/CXWOV3+AKmmjl5XqxE6/stdBqVEPkp2V+BMhkuqnluZsm18TOrQnLDuy7rkFAr02Lq5DkXq6ACxnNqjOX2D5rCC8HnQkCG+20Ndj2PUYqKGe3c4nO+6pKW/K9fmuZv/uKXXvhcM9tNx2f/dNvP77wc+49/stPu+v4yA9+//uz++9rfPgLbjl+ynP514J8lue8yu9zyUnfeSgd+2Js8BuJr4tu2Yo0VjMDmag6tLCnUDxvSKRU1gVxMaUx03xBqZ4H39KLvMCDuD2YszbzlPhcFLQ+78c8tg5Z4wCNOSTL8z0qF5SGD9GL3BvNJL4gyXsxbFhsgx5esNKdjcInV173sBsB6lO/0vikbtwGrYnUhcZrM/Iv+AC8PVdlgvkcdiBgnczTwwlLK+2ScnoNxPTFpoZ/+OI//5S7jj/9uc/S7+d/8L0fOL+49+7gF2//cKlvYO6pHbkKRs63Nb5ewe4H0nHIDQAkszYs6WsevoLLKt7r5aPph67llJm1n+bWtKigZ2aKbJBq/hUsbOV5yAGe53FB1i3F6Nx1Kztu+ogveo1C5CnC6KZW1Dk9UNW41NLVF//evJLV0T9LGKmXvgLFqWsO5OcPzWXXtpB+U9N+p0c3tfLNR2XfWH3Qc1zrAHjMySmauXW0jXavcx+jqeOlz775+OSX3Xr8nJfddrxg/kvsG3hn8FTdR3/0Kx88fuC+JxXPm0BZ3aQFbG784cqJolPNmRdX10cch7pY06M5RfBPkafuIpdYUdfvPeF4SWOca61hj4p1jIab52rlFpd+p5q2o+s8tlOyuNGO33sWnXXj8gZwupFjxW03e3OU6QHpRou3n4cH4HZJ++d5xDVjH8vRD+rizZ3fFKzfeWD//JCyW81dLmz6AfQtFchJ05xrHITTHDqTcDfpv7z62S+th74Gv6B1A+8+/t0PPnH8z1/3oHzfpL7R9BBw2vWA+mYGehiaFyO/rTTrAQLuyVgPDRBXhK2oieXHiuuHaTjyiTqe/IWWl/QdyzenWBxHnj5eJtkD95r34lx4nY/T/uG2N4qpiU9pvZB9xBe99qpT9PEv7CGyLyX9O0+b9cDE73Dj8fPY2KfRXpuHSDqn/SmjuHmI6aAva2CB0tjmgWuWJj3AeS2XGgPvtBZ0HHqNS3Mcd9x60/GK599y/KyX3Hp8wofe+uPy32t/oICb8o991QPH6976hGMdzePnxrdvkJPl1TnFFeyap+ddF+QhW/7SwXNcD1KPd6BLH/En7h33k824qIXFTZ7AivOnDdXxVSVyOdTNfNNH9icAwNH++WHVg4FVdPlA2N/fLPa8bOqbsM9xzeMUkft3et4UCNdctgj2hzgP/T5/5iHHnneNVdbYX7V6pMVfPZ51x83HT/+gm48Pf8Gtsi//oFv0t/Nu4H2Db33D48ef/1cP+Qaua8DNigvm4YIzpdzOg/WAtF/u+dPDRQ9Gx0pj5Ttoaj1UZc5znj9pZP7MkNTUM3a/Ha/hYt3NAx+bU3Tex8y76e1vn6I2Tb0BvLai9UBw/9tbD4P5YpV7uvyPwXNgsrLmOFbMC7eRhxmjXGkIVCO+8/DYztmHd6Q3o8bMqcBWI70wmsa659x55XjZc2/Wx3r+hd2f9vybjxfd63/L/gZ+/PCn/sWDx6t+9Alum7o8vt5AcR3CYE9xO9fj5cvibd8hsXWBd/3KdV0jsWomvs785fCTSLD3O81VB9VPXY2+J9N3cvKtbcqa5MUT8IRsPKODvZY13fSRf5ofAQw9gJBl/EB4JX5YeGDNg/iO4rt1eKR7j10rK1/uevh1NB8/OYCnXjg1nXQdyG4cLAPIL+72W47j2XdcOV5w983HC++5crywHm7sC+6+oj+O+4Hw5+/fH/C6tz6pHwX84KwHRjdyXUfM3NQaHLcHq9DpefjA9OO1aPP0zc/SBez5wemcfANrjXumP8haVj7+uc5zEyu11aHjubNGaTjal/Vchn7eV4/Sja/UtboCBu1NH1VvAPxHDbfX4AG597Yrx603H8dz77xZD8pz6zsi//Dk88ryURh4ewtVpsmw5DIdD64mISE2bwLmUhNI1+RGF3wShDJ4az6feOXr6/b6bM76wb23X5HmWWV5sO+t/dx648f19xv89W9++PiX3/uo7hzANZeV78C+3OFX3vcGiCYPgzV1qPtDNaKtv9QC6duRT01bbrLVg3z7zYPLB08+NfLwbT1nLQqfLF9wmUOZfW3bJxmG3B/rdxT8K6TW9htA+f0wGeujuM6Oc3W4+9abjhc/65bjJc+uUfbFz7r5eMXzbzte8UG36o3iBm7gvYm3P3L1+AP/+P7j4cd5oOo2rftQN7u+uEd9W/vB8L2qm1kcWeP8gHA8P0zxFTvdNU+ja83+awqjYVzw0hf2dcSaWg8sUF3F60cBc2s97UdbFiz/vKY5Zz5FQvJ6A+Dhpl2+y+qBl4c/33vb5w2hdTpa/0F318/Lz7vl+BkvuPX4mR9y2/GxH3L7T/r/oOIGfvLjK1/16PG3X/mwbty+d8vWizg3Mzdi+XnAwP4Ac6MmtTSX3zk5cne7N+hH5OIBcrKpqQN7P3Dub4+nTA/fSdsc8fCLU7zpcck0NRrPd7GW5qRXLLr9mkVvABX4ofabQD/f28/l/dBX1ejK4urf5St77c/wNx0fWp8UPuZDbj0+9kW3H5/0obcdL+p/BPIGbuCdBTfsH/9n9x/f95YndcP6/vXDEWu2b/JyifYbf3RwdV+uhwOtDvVwp6fC6353zwN20m35ps3xPFScvI+rn7RIiNFVCJxz1OZivUascgTqhbv1l3US9no/Ftz00fMjQD/4lZQPWeDBFt9YOX5rje/w+5uDx/jlKlegDz8y/OwPvf341JfdfnziS+94v/hfbG7gJx4/8LYnjz/yVQ8cT9YdvN/E7epmd3R+YLGKlV+A6+fbua1mHnJeW5F0eoHzm4jspp+cjo55aqJRuuaeuS71Wpx1cM5TH9/W3nmtmRtYj115c6tWbwD7A3/54FJCVvyuY3TgN4B6Q9Dv2S/dZR6THL9Yx5vBZ7z8juPTa+h/jL2BG3ga/L1vf+T4v77zEW7linhouNV8G8vnUPdWHhCeoaU1x9H+emicMb/8tvVabzht5e9ae9L5Nhcyjx5I8Z5POUbnxXddejmvtK1iz7nzZ70TqHhipd+4mWvz9T7zM/9MfQIwV1/9oFcI9LDuMQOiCvKRH1zv4z/TLv/ausUd+ttyn/pT7jg+66ffWW8Kt02fG7iB4PEnrx5/+CvuP97w9qf8UBU4nm580+bq3vINb2ueGt/uicG5n1zrxoe/ti48868ejqUvV5qNu2at7Xcom/W6Z/YBr3DymMXV0Ks52XLqPJw+USRZBP31CUAPpb80wDUPbNlzvq1853So/uuTQPJOLh9bTi2A/uEAvz//Wa+44/jlH3XX8cJ7bvyMcAMLP3jfU8cf/sq315uBbp2+3eMbelgI6p6ah7KTGGsXb5+HTIyi/cEza1iPtW7luYE9r7i6oaMB4mXNzKeFPJjKrbx8txTnX0/InKIF6+tBltA8KtH4W03gmKPrbv7gz/k9fwSax5N5mDffmfuxvg5v6EGXquorJx1DivOnBPL9p3plo0ftvDl+y+c7f/jx+rj30PEf3vzk8ew7r+hP4t3ADfDfoPFnPL7jjfw9gbqR/FVj+YJvqUI7ZfIwBHkodPd2wBE39284DnqwcE3LyfPgfKO4fS706o9UOZkBsR14iRwHcPQoV73knedwvqMhATupeuZVXKrO602ooB8BvGHPheeF7B/XHWfDeu7F9oMv9qKuJmj5hcaV6Yc3OvmX3E3HT33ezfpE8FmvuHP+kM8NfGCCG/hP/d8PHN/5xse5xYbDz4N8+dEZjC0nrHxpuJOVsE1t3YTX6wk42qc2vu3pdxRs1DcPHbj+pxOO9PMqkosW4Dp/XgsH6eq5sQarzPRps+auUc+ynzQeOHl58gopROqH22nzk7yu122FuJ6DyLptqgWaF7/P/dq3Pnn8+a+7//gtX/rm4x98x0PHo09s89zABxS4Z37rp/CfovrPmOQm326Yvlf7Gwz3kmlp/WhZLj9abjrcOoyqe2Jy39LTrCFtdD12QXq5hzFrHsZ52S5eD2+vDV8jQvPS6asOq53z2tsZa+5C+f0ndc4koHnqtemtEN4n1wKO4vqVdtYQspgitmlUexGLax65uqnQ8ZsefPL4X7/pweM3f+lbjr/77Q8djz25NbiBDxjwp05/+6feNZ9EffP7PuGO8K3aD3LfS3qQolnyQbTGllSd8/paooLu0PZTxdFaRxR77lWJZtXBaz2nRdl3XVfSp2thzCdv/SxPi+4AV5oz6KZ/1CfFwb4O3Jw88epTzsxUYJEVepIalU4d3pwkGfcKcE1v/UBPdn7jMXffw08df+ObHzx++9976/EVr3rk9NHqBj4w8FEffOvxaz/+LvncX9wnvtsAXo3tvtCDVBrdjSXybWX1jmselK3O96Th+9L3p/r1C0994dJKvoNYVYzfPF89PNPSyLCWfu3I3qCpm17yOUhlvvcgt6w+AeD4AffJOaF5VUy9H2IaOvRJkM5MhA2tIJmGa4R2OA4VW7n4JxT5o/WJ4C98/f3H7/qytx7/7gcf68QNfKDgl37E7ccnv+w23V25T+LrBun7Cs4PUj8EQfmEw1g+WErXTW1Z3f/4VQPt2dMglX5UU2aUJjXp8TRw3da3YnHUYlJMvO01Pmtq12LmmyK0/AigCqJssAJrF4pXU3Fqe55o1yqD6ZqCbNGrpnJuZmi+9Ew/RTZ48GLWptL/B+978vjj/+ztx3//L+4/fujt/vfkbuADA7/lk+86XvYc/oOrvlHK6GHlJWvkvttvO99I3IvU5FDR9LJVl9yAoPxIgszEUUNh90ffHG1Yl6zYAI154HJziuBrKC/ePnm91LzIAu7iVy8FJ/AjQKXzMLLQ7lFoTodmVc/BJ+1SSyoPpc3aEBJ1Z/PRF+yvhWWNGNVq+ISzIeLZB70ql27f9LpHj9/zD992fMm3PKTfK76BZz7459l+78+/V3/xLA9Bbg/un9wbyjXGHy4qW7EqDl9A668+oPZ9qTJyFej+DyegcYFScrvOdOdr8GUzNYOKza1+GN/9NaY3sM7Dx73f8vU7dko7LuQhwzsVVnB+g9irSK+MvY6pT4uiUpM3Cubb+0IThdGxeoSngf3OqaPXSp8nnrx6/L3vePj4/Hoj+I43Pi7FDTyzwcP/X3/mvcddt+m/uvR9UmO79Rr94GFzIxXkBxaM3e//S/3kMJ1TXVxe0TRSO/e/9GruTLldrl7sxS1aI25h5qBNc/s6KVU5gCco64w+AYSj6PwwguEVuVUWz9FueJkN1QvSX2ZalBNDPD4HuwU7HF2ymmiF1G0+xpsy3nj/E8cX1o8Ff+UbH9QfLrqBZzZe+pybj9/1affodwZ042/3VLun+wMXDYzyuX/m/gyvhNGNdM9Kq9C+Yt+TkjEKud8BlO7XEmRu5advHcrt0kI/G6tFI4TfIOaZYqDv/hDb9OJVilDo3wZ0A9illtfVTEKtC72oy7yS9bVvuAs6fwYy8V1jZUG+34gUztH9fcBHQ+yQQc2qw950fNX3PHL8vi9/m/59uRt4ZuPjXnzr8dt+7t36g2i5N3TL6FiE7hER7TiQK2GShaRTWlaSgu//CDjm+WhxQE1ztlBlV6lLyPOyVKSfCWtF4W/Hbte+eUF1MipEp7mbd7fY/gTgbp5mOlWBpRQrrOET68WRir4fWArUy25OzLa8wnpw4eWXqKmu24AgPcvNAw6yQlGM1l3aNz3Efzjx9uOvf/NDxxP7v9R4A884fPrLbz9+6yf7twd19bm36gbRg+KwRvkMK3yb9P1zepjQKur7TEdD1a3luO7Lqe4bc+th8eb7/ne+0a4e2sZyc8cHRDUyz2WbPmj/nWQuz1fH4vxnKRoIu5fgop60m6URnDat5FaUxdQrvfZl42ehw2pej55IUB1icqpLoSujDC1UML26TnQN/szAF37V248ffuDGu8AzGZ/5ijuOX/8Jd/vK1z1wuj/Axb2huwMN/AY/KAaeRjUbljZxCuFRRDVagEzrcTbDcLPFSbytfdUZ3QMuIurbX3urOh13uDdrOf8IMH0qrkZ6kJxxDZmcpN7IpjCmzov33yfY8g3XuZcUiGug1BwqcZ1V5uX3HAGuZpRjPv3Uow25V7/pieMP/dO3H6/8wRu/QPhMxi//qDuOz/vYO30f9D3ArTGPUHiBh2R7kAq4uUd3PvcX/Gq1ai/r1n0ajXVSaEGp63zXsB5rVz6wSwdzmQFo7qLVj1f3THX6xPpHgEr74ZGbw4RYNa6vtZCq0bFibcS6lg0y9ToRlqugcxw9v0+d0M46GcbyAOuOV6/eLKAuPdVLxvoHH7t6/Ol/+cDxf77y4dNftLiBZxY+7+PuOn7Dz767PK58bg1uBt9H5nL9F2/YS97Zwuh9Vyqqmyrsgpnpz41XSIhxrmrL+DbVYXpZu93/iJLExe+5c+9LWzmNOswzUHCpfUBN/zagA7zE2O6vidQYTeeFcrVo5gwdbQ24Td397aOglzjinp9o+QB/FeHPGuvF2uzXoN9M0Cej84PEJfvy73rk+OKvfeh4qN4QbuCZiV/x0Xcev/mT+8cBwH2x3V/cL7pT+kaCt2+e24kIbvgyLTcq0D0qTt2c73tRda33fM1pNoM/zi5e/SO2iSO+Obn40SrhASW6Dp671yO002vrTwB+cKSNQBChnDbYRZ5YVdI3LVxqd+y9Pd9ifGLcy36jHbVTy1JpNzV6Cs2IYO1SBVpHN+hS63Ba+soffOz4wn92//GmB2/8usAzFZ/z4Xccv/s/ute/4KXr78uv+133ge8fcYS+WxSQV6S63KPOc8zDCr9qa9RXckB59WtV34d7FbEtOg5W7DDdyVInS7vFd7/ZU3dVqjgvRNT8CMAXTfzQGHqEFCJ20YSN6DeqfLRy1JTNouLIvHsPVwN69+IK0ntBheJar37tAiTMpzoCcdgpWPritbbW2b3peMN9Tx5f+FX3H695y40/PvhMBb878Ac/61nHHfqHqXNHcANgfP/MfTL3jkHE7aV7p1RoxZEUfF8HfsA6EOjs7qGvkQjuzR2rW7QXpH6NrNH1XjP+/nf8IbGM6AP10nNgfz4BqEjVOgjj4VQRD4u3Tti+VmBzDdSzVIwWsbFupx6ShXQGp8PEiJsUpVPUolZ0L7BOWJ0gZBP65Ioos5Uc9z1y9fiTX33/8S03fnHwGYuf9ZLbjj/5S597PP+uXHjuhXYLc58UcCfkvuF+qVfurbl1KsG9nXtpayHMva8euvvE7feeloGue6sCX2ELmSdUcXlmIplnqUb6qKCY1bd1HePrz05SpKEe3bzkOpZ2L0r+NInqWqc6NM0xKuClFSy54C5NotvqHFgBnFsnyuACnIHOayiHJHH5W6du2/tw4+Ox+gDwP37dQ8fXvubG3yx8puLDnnvz8ad+2XOPn/rc+ijAbVDX37eC7wHfI0rIS846c1PXA7TZHPfD6t5PDYz6OStrUryFZFyf/giVJq6RXoK45Wo+wDz1SlslL9D/HsBeuEQUMnrZ5mowuXMWiFPWD7+8tKn82rgpoB5lN0pNwiuUT5TuntMnKrAerdByZhRXcfI68SQZatE1DdryUeqvfeNDx1e/+tFmb+CZhuffdeX4E7/0OfrPaoLcK+XoHtGdoXukcwkKDq+9D11jjhrpruujXT3xhke4zet7dmnUP2Pg+xoNtdFK30it+OH4bXoqutdKQSGODxxwnI0T1BDXsXrQkoFTTdCnxLU+eV5U83LWhgFS+mW+lhasgHadrTxSG39G9eLlxkJ6D1EG1d/6Fv879DfwzMRdt950/Lef/ezjN37SPX0/8MDkLvA9kfsf+NmA5+4gZz2wdW4eugrn1sJWoA6QnTjd/50nTgv7ns/wM6m6EZXrysr2M6VgVS3ptborKq6vPAi2U1HYFq4I7PltgaXxK9h05Wrd4pqn54nf58D6pbWqxAufGVTbdSkSWHPpur86Kc+BonaJ0ry1+/6/rN4A/uG/v/FJ4JkKrvR//DF3HX/os5913DP/83U/HLo/fB/4WLbvtcRkcvvt928TypkvOFAP9ykg27hUn/rV/YiXEhzu0RXG22oUmJcRxaF7tY7jFRw/HC4QNpcgDz/IQ8WJwk1uf3DWBjtXg0k7HF4ol5B+qu9auLW5sio5b74L3W60hfJ9IRVoxJeRHutZdaxYuT4aNx1f9h2PHF/xqhu/JvBMxie99Pbjz33uc48Pf+Et6+rL4R7yvbTD96XvHKFC32+uvnqVf3G/O6WPRfJz10Xi+9j3tXqkpnwPhd1jzbMAV6Zp5fVQGITptcC+9AawErMJLSimDluhF2EbGuMeleCYybe8N93Y+lnD5lvVtW63+k29EjUqZE74vZ1QevdzbeAuHWOqUN26AdL2tuNxfOm3Pnx81ffceBN4JuND7r35+KJf9rzjN33i3cct578hM/cSNveH/Yp0z/BPfkdDmno0jvdnQ2ruu773AJl1D3Ydcd+72y18qnONqhV7CteNbqs9NaoEef0awHpI/B1WTfhSBx2E9Ad+kPwuolF1ym965ZtPW0U9n4+g+9TBcxrOF6EvEsWoH0LrjRXIVBOpLBN8YonqaAMr3ntWmXuTrCAXheOXftsjx9e/9sZvET6TcXNd+v/k4+4+/of/x3OOF96Tf2aMe8F57o5w3Cd9exT6HtpvOIH7v93CPLBwbfSgrkbX/tH0CqFMu5mm2WTxo9n7yeVQRZ7LoZ8FfQIwfOMb8bOfPCDAfvI8VNbQ1S0vtM0zqVPlZBVQ6U2volaYjRTRnGp1RJjQHMCbeWpQv0orISkXSwZSmqZFubcFWRuWC/M3/u3Dx3fqf6W5gWcyPvqDbzv+4q/+IP1nNLlXdF/h9j2Re9APlUdEHH1X+Z5WPDm0xObn/i/A8exJW7xtJ1XnmP9SjDLqPY9BPvNY2OUSm9+mk1ZvAM5tjVKJ0ULwnfcEKBwjm0maC7xgv51kYhTadBOzYJlzvWq7zj049nf3ReIJp1BT19rtKpGTzZz2mmMN/jKvdbcOovNPPnUcf+nrHzpe/7Ybf2LwmY67brvp+J0/71nHn/3lzz9e9hx+bYC7w/cEHrcE0L3ITVJDPGTn5t4GupH8LMltpJ98vRp7reB5RPdcxvkeT3N1Klc9t164ngUtPwJMjQ4NtiXTnWmGEN9ZXm7WqMBVbo43D5fg4m6xbJyCq3aw+NVCGxk/1g6Vy8NfG886vHHH9nzMIvajgK4kUjX9yBNXj//p6x4+3vrwjb878IEA/v+Bv/irn3/8+p91z/y3dLlP9fBuw4g1Fk/GfqhTTu527zVW732O1HJ/Lq6CdgrlR6P72FTDdcRXFjmOliGeofrecsU8K9qI+5rnIAeLI4WhmH7NVKzJHRXo7ZrpUUCjTHGMU79N52pvEDrzaM0Mgp6vozOkd409K8VPr9TyieCm460PPaU3gUdv/DTwAYFbb77p+E2fdO/xv/6aDzp+3ofdMT+n65645pbaHjZydb/4YVv3kr0gDfKp1FnkXdE9LutAMSlvZB5NlI5dLGoD4enf6+DmDqa+irUBsQqLrkQTmD2WlabMLCYGnR+iprq3u2Dkke+1pAUQB1FfSndurc585pG0G1Brz/yUqyeOXQMBjUysPr6YFPNjwF/9xoem/w088/GSZ99yfOEvfu7xxZ/7/OPlz/ePBb78eci5c7C+J+bWWDfW6Rf58FK39xC6hH4B1FmPLYgjWPM4Dl+oVDPmiMv6FwGpq0WexNK4oR9IufINa4nSUDFWox/i7ilXNXK6Gp5Z3J88peqXtbQYXkAYyPUbSqBSCtTV/QX1a74oew0IuJnT54J81oTGfleV9JVveOL4Z6++8TsDH2j4+Bffdvzl//iDjt/7Gc85Pvje/PpA3xeF7Xbc7il8VH1Xhd+1m1W6R7Q++j5MpFRPCE9sOTpMcvBiNGfq1o8A5ayHxXWeqLG5BPtDh5sHg37yZzI1OoWkZRRo2ZU/9+ym5ppeJ6Kb7ejc6lFxuaOEJ9jSBOqp0bXi/aBrTRSoRonjKr60Co+//+2PHN/1wzd+FvhAw81Xbjp+2UfedXzJr3uB3ghecI9/gcC3YT98De6jvsU6bkf3GLxfweS5x/r+h9K92vfdciyektb62Pf3CdNA8I8AG1aYR9pQGwg13BpXA9xswgtYk6pHHbyPVSd1+YTweXDJ2l/5tAs/KxPv+TWBUMHwLvSxQdqTKlDPGl5PUfiy7UtFTR1ky6ncxBX81W98+Ljv4SZu4AMK/KGhz/2ou46//eteqN81+OB7b/Y9UkN3xNyXvqV8//i+4u7x0M0G4ahL0Ho45l5VvaA7tqw5P1uuT89oZeyqJi2k+llf/Lqr/q0AGP0bYUpyFN2Twu8PYLuj2XkiOVVHjlgSrHwH+QNXVmz1W63ycPKcW7756+vdK2s079qJbYa331bDPThp+OsXTMynN/Uf+cKbj9/5af37xjfwAYu6DY+v+/5Hjr/2zfcf3/HGR3W3wCkn3zfN/nCGN7Pp6j4bXY3Trx+US7TnQf6n7J3XUHzuh3vzi3/J7/kjENy35weBm7yiUg1fh+jogDlpSHqepStCueF59cPKV/iury8Bu9eD/eNK8srta2w+C8G9lldGCRjlu14SLK/r+EDr2NbN/G966KnjzltvOl7+/P69ohv4gAS3A39u4HM/6u7j4198+/HAo1f1n9c+WfeLHr4SnB/O9R3Zd2ChY5i41DhPvetUQT8pUmY+noAj2tp9/ps+4c+9ThE3NQnd3HwViwsuH660j5+HQHFqbOahHZ2/hHCO14NuWXjHsrxqYclEd6oVb27fU1NLV6a9Gq1tG2g+F7V2fxPyOhS6hX676L/+BXcfH/rs+QOWN3ADx5sfevL48u966PgH3/ng8fq3PaH7bH+IEwM/nLrr5Dc9fqdll9Yqf0Lw/ZlPC64zd+rHqFhvAEpvNzmWG3tucMVELnfeiV0b6KN968NPH416JW6rB6vaX/LRdlg+Xj+oLEe51S8/VoCdx7gP3nld8sqRdl8Dr8nXl7dvLqLWJ3zRvVeOP/DZ9xy33ngPuIEL8PH8m17/yPFPX/XQ8S++7+Hjvkf8J0rXx/Y61H2kB7X8poWd82NcTxecss13cL0HfXIdA+atN4DXl/F7hG92HQ7/U0EW5mafn9mJKzUPOg3L37974jMR2pYND4ajNFwZe+biA9XteYbiMOu7t47k6MEWxl/7aWnXs07Hq4d5+eL8poE3cYoKiz+OX/IRtx2f+9G3y7+BG7geePi+7YcePf7hdz14fMX3PHTc/+hT85Dy3Zt7KQ+y4noREaOTtK14FZ/fFMB8EkiuY2lh/QmgXutermjd0OGTzgOiluTLy41vX+6q70Cxo8K51qw5YF6uapZv/dT3XqBWztaeBeFPbxDbfGtP5Khxvfrg1ElbvWUEq9ZeAPZKfff//fWjAP9j7Q3cwDsCf8fkW3/okeNrXvPI8fXf//Dx73/kMW453Ym6g3lwbQQ91HXP+YE2Z4U52XpJ57B8VIZoastfPwIU5gFp4vIG10NQhRhzK7/rwPKLb+X1dAB65Xd/fdTv1KkWLpHznisx3t5Ttp3zm4Fx7f7bXvZgwOFkbW3F1zn6sOffcvy+n3/jdwVu4F3HG+9/8vj61z18fHP9uPAtP/TY8Zq3+N+i2B/ifGcHeqBltzcK34bC4p3Y3yz8BtA3LZb7NTdt+Ou/MTjGu+TXb++RK7Yc5nYfz6N8GWm6runmiJso0DPrQZhagNU8DpWTFbPmyz6y1+SWTtmOL9Y7Nd1fy+h86zvd0XF83sffcfyCV6x/ePIGbuDdAb+I+C1vePR4ZY3vqk8Hr/rRx44feeDJuvPqVffhPNB19ENuy52puG7IpmX9CcKaa34RMDcvN7Pi5sHc8HD06MRZY8vDowk6t/OBeIY4a9nFlXraXUueHHUyQnqklTVrLrBquy+c+OZaaZ0RHXnNMXtE7T5FeS04SrpXu613L/4Tij/2Ofcc997e5A3cwHsJb334yXojePx49ZseO1533xPH69/2uEf5b9cvLvpe1RsAtgYPPvcq/2CZOO5X3gAIuEXn4Swz/144N3jzHPHzMEQBrn0oozUWj3Ou33sqbk5+mZNOqz733fOAB7Rlq1fHwDpOxjlnv9dGEihHsPRFrVpFxF4T1Mofx6f91NuO/+wT7kByA+8H4K97v/2Rp463P3pVv0r/xJNXj4cf57a4ejxaPv93RB4qLvD4G8xxBxjrO3RrT6Zz1OjmcZyMMZVD2mzarsc+8NjV+oTwhN4kPJ463lKfIh5/6jjuq5iqR5946nioiGt+BAD5bosJh1HcEwJxW20eDb8ZeIniOwxvLUl9CeK8hwFuYs1TWL2ZR5RgrQn7WJ/0eWMrRLeYtV9nL/Tye82eVohi8l2L3crV+7/57Htu/NmAnyR484NP1nfJJ48fevuT+ln7jfc/cbzxgadkefAfeZybsD8m63r7X4MCbYquV6cVd+L0C22M4s+a7qVbxfdmdJCrjy1GeUWbjpdda+qwNOijS83iFdaeUnPTJ3yx3wB80+ZGlqYGM7TfnHNWdSjoofGXoLwKzg9FalnJzKs5Wtt5x+4jK54lbz2md0UQ1fP88NrCseHLnLusOYHndV996SwpZa5y18wx6zfMuS/4GS+4+fj8z+C/qb6BHy/wEPFXtr+7Pia/5i1PHK958+PH95Z9+yM8BL75uZz881pcMHF9rbHKF6JVruPRmzJXhTC4ROZcZ6+5rvWbBYf1ptAlJx3U4qlwIL/zaHGeulrf4ve9FDAaTSyf9dZxPgE0NQ9DZaGVq4Kb9LkaTXOyMvVAcKTOjfMddXrJbyvm2ocuteh2/lKrh48NwO3aWNW0Tj3NXf6ahfbURHgwD3fnW3pNvwBPUadJub/94Hf8vLuOj3mR/mfKG3gf4PH6eP5dP/L48e9/+An9Nhr+A9vvrWP5xa55EJr3w7c9NH0d810YXKMpYPaHSrYcP5LWyvIS33qtwTGH6DPf8BV7vaLFT09yYnd+aa+3p8vaxDf97D/3elHsm5u89XPDz0PCkMvDeH4oraGHmXOt+XYXV3bncIlZWB5Ca8t2j/4yX7rJN2//gtvnbJVydpvLGu2DrKHTq1/0RbRCOc7nKmnNKI7jpzzv5uMP/IK7R3MD7zl+uD7Cf8sbHjte+YbHj3/7A48eDz7GP9PG3cI1zM2++75OQdxrHnbh2hpHaGQEa6xVrOPqg9nXAFTvW8S68jt1qgu/95YHx0vWUK6LTvrmpq9YNPbnFwHnoWPYFfxg2D892NXh8iEwv+rnISry9FCjSR9xMp4rMUO9PL8kxPokcjE3Q0WrJwjPXERJTW332etSI0zeYA86aXAXawDhQ66stb/t5955/KyX3NrcDbw7eO1bnzy+9vseOf719z96/ED9LM8NztUF8wDwKnfxOtaL62G98k6cdM7ygFz2KI/r3zV+oNZcwdM+wKda+loQDlsfxTu+ti8+vbnF1txdJ0XP0z1dX2KtYdcsC69PAOXOzStb4IibGJjj+PQ/T8+DLn75su3sGlnFnjs/c8OI7zW15KQdK/5CX1mwc45lJr/emJBd1qJL1DUdmi+9gnONReTMpveHPvvm4wt+If8XnegbeCfBg/61r3lUD/4PvN0PPefYdj0QfPEzvVidc5yLhxLLq3310cu1qUtatg7pAdYDuPfZ1lGYnp1nrRNrDjvUUJFPBWtPMhNzvF4tcO+eV75x0qlu8biiL38bkGD9TA/cWg8QXxT1HdxU+9tDwOjAvoPF4eyfChYnreZQqtfkh8k6I/nw8WUn9uDgvtrqNi/W3PTJ3HWQqmuyB7D/GodQmj0PFFJa1p2s+S2ffOfxiS+98SngHYHfbvtXr3nk+KpXP1o/1z+mc+krwenuG9ihsB6CsietmPL8hrF8pRWnXzSAowa5crh2+H6Yah74nm9/WNudWpz1nb25qtODX/w8xJPDyhTnOXb+pNPxgivjWGH59cLXkuOvnvOLgGxFRGw7eTAIfZOzJCd1JMdoJg8HwHXN7rtebB2cJYfvuRTbqMa+TxhYHPAbCfshLU0F0fZPDPPQg7gY1Wzd9tzYJmV6ngDX9U5sqa22T3a9fiq/FvBZN35H4OnAd/t//N0PH1/zfY/qF/EAZ883bN+4dU51M4cn3r/z6zt5bvL1kIF44vwlYK1vf4tB3LwBaP7mztrK8aowjLTjn/WX/r5eHbtWmm1P6Rn+qbwLFfY17v2A61Jfz86QEW13sB8i8xxHE1Tachrax8bPIqzJHFItMQzz2G3NpCbujkZx5v1mgqulAvFLm5y3m14biqLXmsc1ili/mMKFZgdsMvJbd/mrzvivecuTx/f86I1/Q/AS3/XDjx9/4p+//fhd/+Atxz/57kf8K/jFr1Pua2GOa9GBrn85fQOIj6/BNwOF8mXTdOOHK8ivr9xbZBh+kLioqM5ukF7h01fc5p/urfF7LwVZahSBXosGveynJt/wTPXGCsptPvpWlVffsOVUwTzszhmbryZ10MRKZEMmqc9yaSXPYVivSzVnqI8m2NBx+upFqcqd3FvZRyvjno3klNxyHJ0qMvOIcL4DQ4tfmoxwskV4L/avaVMtuIm+8sZ/NCrwXYuf7f+rf/i24w/+0/uOb3r9Y3V+OF85cTX6epnLiSzAb7HPuxzF5+96y+Im45ioCtVv5cD4cS7uxazTlmuOD6NFqywj98+si7wGrjn1lVfQXHKsWZmC19udC32/FS4tutRy1OAgvj4Z15DYEnX1WouYSeWT9UOM1bFPiOHvxjv2rniZWJsj0ERG1hucOxF7bhLTV/Ov2LMYekObfRU0X9ugfZ+sjdf6zMjWYU7otjJPYd4zrRw+FztV2LT4tjc8cbzxfn+8/UAEp+HrXvvo8Xvqwf/ir73/+L63PLGdX0Pni1EHfQ/jXPf5FSe977+URtth69q3cd1wdk6cbPpaodF5I9eZ+8QJKbfL75pV5F4d932re7Rrzv13JLHNycsNlN3XuXTu6b6sU1RhHNX5EwBFrVjNm7cjaEP6QmA9sNeL2XhV62HypfMDU05L1K+hnBLWR2YNvesFv9XIr3F64xGFjsAZXFd5jZ7DNkicnoO9defUnxeheLJZo3Wiulh1DTK8MfyL//BoMx9Y+MbX+Tv+n/ma+/Un9Xz+6tj3CcDY5XzunM+dGes7Pbq9JlCNuLoeMSPpa6SjqvUSuCkHxfLrDJXSvNGwjvaUS2arnbl7rkwunq9ONy3eY32SUd/mBenFTlsQ3Y7RlTCpWH8CUNLYHyY3WjmlauSNIU2IoiW3ynyRdHGlkVt+O3A6Oif9lgvc23N6rDr3nijpAn1cOxSQ1Hrq8Lbq7mdoXn811zmtr/fUmWg15yVPz7Jm7H/99z9+PMa/FPkBgu978xPHF3zFfcef+r8fOF5b3/GBzj+noM+Pz42MkCvnXLA4sble23UDKVGtrpeROUmPVSY2/Ws8tf0iJM5qU/CaexXTa3iIgg2FZ62sRh0rPZwc9JnM/WQdCuk/z1shDDj1u9x/+0BvAGEQ7wvSR5Tm5RUH76ZNnLAmUo/Op17dUwK3LcxAp0LP0cjH+WC5fXL8Jd45nyz5VStfsZIFOCUdNk/empXnmDpzW1z29IbZNk70ehdnHWVT++BjV49v+cFn/i8G8jfR/tK/eeD4/f/kvuPfv/Fxn4PifRp87obj2Jc654lfSNV16FgqfHhpHa9hFZDb9w58HSFgpW1HvvLtaz5yp2uGD7lqfWzthsSjF+N6PA3lvJaN8Jy8EoNeB8D4U4FPgHh/tYbRcY18ArdMDGlzZecXAZetURlcScpREws4ymqyxIWZqGOhg9TzsKSE2AuLiNicQoTdL5yOa8qKzaep1yu3xatWoGUZdH5wV/2m6pqdY2/2wqG53DMeuqWxr5nSQH1d9y+/95n7YwC/mPdl3/nw8Tv/wVuPr/qeR48nITgRfX103nqExJ2P+Dm3FcD4nCnBwTw9ga5/58vFuO/6CD18v3JPMuzL09d87Hay/Qq6R9Y2vF354Q3PReGZ74z0TXTP0WmuaLZaL0e5da5EDDhXIebNoutcWeh96b8G8wTbIisXFye8rHozhRtAke22Dfs9hzE9ZAROfC4EB+kVr0WmhTW9libXGpQtVGyhovOalg6TOeB2XmAN4UZpra2MLK56iOCAqVf57GdpYnWU/6offfL4kQeeeb8YyN+++wP/+L7jb/67h46HH9fZ8P5r5KZl+Fr7bOi0CD73fhnrvO+/BlDo62S9gVRDvln7ianZcmXzkIirL+6qPd/pecMRJ88gOsUVOO77c8unL+DeBzA7L1fh9nwUvBYi13W5ufF9wK6etlOrvDn/+RgV+13RlcSiCl7EQD1YlN9nSHX5+EjURvVYJzsUz8M7C2yb0A2IfeJEq7lm2nJkzKWX2Kb3Nwjnu75gOXE0dqVzcmrSByydY2PtRcc6YH1joeXcusa8aP022De87pnzW4L8msbf+baH9fB/75sf3/ZfZ2idQp8r7ofJt/XZM3A7HLeb4OuNwCSHU4/0XznzO1peyMKogV/KeGrVpOtYu8LGxfXnqK+OymwtRps3s6x38nqZj1aY/cOTV1g4z8/QMxu9tGIdNwf6PweNsIIukqnhyaxWRgfH0BrDsIn16QAjnmbq0SqF+L3wIpxpXpP3G1JBx+KzDoGaCpnvjFKr/3oAQXqJsat+ru8c+lnL4q7VuU9YewWtqbyeC73zXuuOxN/wumfG/y78vW9+4vi9X37f8X++8sHjifpQc9p3nQ7e9HRucg7nuylHnyd8a8pyKCmx76c6x+U7Wyldp35RV6/OOIe2e4Hck8N1b9d5nUrl+vc1hNPad86Ra+LraG56dF+vnoOS+pIrCkHWG5765qUyv+fVkxjLq/3A/Raz7x+frfB86F/+kljp5afWhVlgkXwp54YiGskH6SGHGYk1n22gugayCMPv+eGb2lOjz7fYAtuVXMN7aNlAXDecHmH6IkBHp0yv35yxv6Nn1GE0irE62v7A257Ufx31/gq29I+/+5HjD/6T+2of/K837KuOfGW/274zduj8tAbEy/mULSf8rpfRteg/d1EDCzhqwMv22HIg+fiIxEFu19nrueRr2G3bBFrpt/siow7YQHOC7kmW5y68+1BUozTpi84aF7a8OQOvq6cuMbiCx0OnFuX4OyUkBfIUix+h4TYmdKy89YZaXWITZPHru3O9ilrz9klII+weF0SNH52NgT6259K8hlzVrTEnENu+9y/PQykVQy5Ivjj9RZD4Pegpv+03vf7981PAmx588vgjX3Xf8Ve/yd/1c16wMgVbxxrsuRx+dT8Phs8/ubMm3H6Kww/JlM3N9W/QnRzpuabSN1lY/YJ97UvHGk/dSaV4a4KXMWBdQ/Se8VRHV3fWvmWTs+/zU+PUB7Am1mvSXSzJN77openz060L/c/3aULicmZR0bf6tCBZv0vZrxEHoxFhx+SqYfoImsZz7v2E0a05OIRVnWoV8KUep/4Dn4zJ9zqkZA2qUTe9orfOvf3dpbXyJahhTmFDXTrOPNLv88IxKuaPwL6/4ZVveOz4ff/o7cd3vvGJ9Z1Rr95z73P8GiDWybNW1yIp6fp+OOl45bs9PHnn5jstvAq7nvNeRrwSfR3wt3tS+a7E5370PD2aB/DUAtwMxdMFLrUw9DMfmEfj+YJd5t7pEw7fr/7Sv/aL9lr4xF6vXr8G0PuY5FpGQcGJUci7bdqpPsUbspj1RrEmS04oTv12cuvvOrmCdRvRrtX0sa9N4ne919HzXKzDOhzHcVY4nrler9n2K5g19+DATIpHbz94/X1PHW9+6P3jdwNY9j/4zoePP/nP7+9/fpr9+ZxfYnH7uY6/zkWgcxJyux/8YFfdXLPiy5168TvR14K6HoLLyV70yrVEKxqFhrH2ZxUlqSHongXrureORNtcjZPfdt7AHK454+xrvphDGL0180r91Kz6/jUAXJZZARuryIXw5wIdK1TT5PGd3mACiXopCteFxBZ0D88tuieXVid7pA1/YlDvc6Lgi5MTJlQI577OrzlEWa4luafe5Qsu6bUVsKpX0D9zqi45ErbqtXFAvGLvi8O3veEn/48B/JbeF/3L+4+/+W8f1O/rax/12s9Tzkszo2mJkBvd17X1m+W8RIPNNxtpVIgutnmpmYvhvvMjQZHiWytKNYa5vvhcR4uHR0krQr/ZOXeuLxtm4m10CqQ26yRI7fSaHmsfqtt4ra0M3uKLZa2KqGP9S2Od94SrXwPotF5ihSreNq08DZz0oqCFOLaaxIXG1sM4JehcNlwhsoLquhd9pSqtppACOG8PdjtpOjYPRR/5XQC6mX61t4ZQ6bzBqKYS5zmNyxhQ4xMNWOvqAZJR7wLzfnt9lP7JjLfUJ5Q/9BX3bb9tqRN0ArvR4Fy1D2bfzQeO+/yoGed76YEe/qmHkNu1ZXsA+RLV6Drl+tzr7pEPWSiLT0hWtR3r/qCHo65PVOj7h9gc8cbNJO1r3sUZxJnD8+2weu3DfTwPblYTPhqFyjjOm5bJ9lvhPwrcwTVAJ+OC88VoS67Kif2qkEVG262d2evw5Qqqr9h9wm3fLcpq/iRO8FyhsY7ldD80cgTlenF4ScVXabOj7X2aI+8B/OaRNSztaMiXme+WvDoPvv2HHtN/EvmTEa996xPHH/gn9+nfMsiadV3KyX4cr/0AUsSn0frr+X45BnC5/pLqnK78cqy1sq8zMdoeeQhIAUmqX4DG1o6043NE7B7A+ehz/63+uxZI2/eE4uaM1tZoIw7V9OTQz9TM0maey/ri0YsitTpGA7Z1XLHxkSkHLaAhUNOi5iFUk82JsDATgXK9jAuoxsaOjbDV09bfiU1nUyDz+LjmH1fFDkY7xeZOaw2acmrVrx5li55YxwXzWbPP27Uajmiceeixq/q99J9s+OYfeEy/xfem/F90xfW2Z595E5hzpSP2rAeKGV1rRd9TOiQ34QDa57PzYzleXGcOpuRnjRi89NELYtNm7MgbHEiOWq29+WDy5WiEqXcAPH0SIYHpnHkDTnGIgtwWhT/rqne3nc1c80z2WqUxN58AxG8JivcJeAhPaK0xMw8/E3KkVzlKyS+PxYkAxBh/l/fchuuI4GF0cL77crDGelzVwfdITwaQrVaOvSbpCkuT+gpYl4DteQuyNbBy0ZddD0VB6+w+VTs3I6MOqijNq36S/UtB/+zVjxx/6l/cP/9bjpbdp0FrZ3CIz6sIOO/R++aa+gGSVJxy8hO7h7GdI+X3HHAta1FfXtJ3TwZ8D5j5xnUC67OHXXMui0t/3ZcbWlJobYZqzr8u5HnoQmQ/c3tYpaOmYa2Ls1cg18Pc6nvq0bFHRTW8fmfVQ5Z/EUjZEG0HTZTRJN040EntmKMn6mlUqvc68YH1WbiRPAbfC08W0HRxsq0TtLl9LWWL0hLAtk5weXPJ17F0+EUmDsQVOTecFOjrJVlZUcxFnJ57P/uyu18G/1U/8pPnFwK/4nseOf7i1z9wPNlr1xp5Kfa6tdf2vYed4zyU3c99nSf75pynbw9x+LY7Rj+1cEScfOa8fIDN87XngK9hdAt+SLpAcF9kmrP8/DoRvvJ2nCdQjwKmczsyJ93UUeerperRGhELaPmj49IqjZbnq9fMskl0ftDLSe3uo7+iBW8Fey3Ym+UErYna1sgnhCX3yUGzpi60m3fUlVvrIMcrmcyjnmJL63JFmgNNn0ztCZ4xB8O9orM0a8CuuQz1bn/mbGJuKhmS1OMb1ErDV1lSe7/L+CfLJ4C//x0PH//Lv3mg12fOYI+5rjV4Ggq7ZNfjorE++zc/16h7gOV1ron94aVLIqz6nvKFuf7k5AzQ6t6Cs+zUR6N48uEvQV9ZtIoLmXOTk52ezbW6wCToHVM9meqFn3jW0Osyej5ekOKpK2erP89tXv2L5zxcsYAiN58HmaB4Rd1huJ5gcNFDSTmF0qangIYX+Rq6GErUcXK2YruPj41uR27rPD2xepenSD2N9BLTeY/my2Q9rofwyYKTVkL7gbR6UVsv4slnf/Sh3v3W+lb/Bx67+hP+x4K/5JUPHf/7v33Qa+o9rP3DadHssnP7/qOxFTj/c706Lsc1xL3/lue8EzKIVdTxFkpHvXzFPkz/1oruvH2OHUtHzJ5kJEKT/vAazUurGkN+epSVq3Q16/UB0/Rzb0ngylm+c8G+/0tYxRz21ZGv9KgvP6tkm5dVKP5KvtsqI9OOENtFKjxvXmCTytf2KOnQsJdFrESJtDh56u+2vWBySpI1vDEc+9Yq1GAvWYD2BN/aaC77iqMPOsVKigXSyjK3g1iASyts1iSeF5z6LYtnTetEM7/7f++bf+LeAL702x46/s63PiTfN6pXq8H62vdNWX6fJr1pFqX9c37JMajpoEvGBqrB8sLlXKp65QCuRutmDWXxPDfMLEpQTbRSeq0Bf1Tba27NllOP1JZZ9buo0HvWmqoGX0NFVO1zOj7ff9bK715g1dj3sG72RNwj97yQ/hLLlb8Unuf0CcBq9MRZYOcyhM5Fr84WNDVSYvW49Hnt9fZ6YJY/XjVlGvcggFzY++WF2h955JJsU7ZJM+2Va94nyLmeqM8JVrnutX2KHU419aV+MG3VumDfgWu8xte97SfmxwD+Qs//8S31nb/807rke787oP3xvn/MaaTWoC6v1c9+tN43UGb8cafGQL+iS151Ojgnra4/c8NtLxFtW8trvus6vaGvfwEanftuogs9obu6V6R7nbOeLwK5zXtdjd7LGdxr6w9PKa+veuH3/SoGHp3G/icBGSUctDB+d2iug11fYELZbr7QOow24PAkETqXxKYF+I77JCj2ZpSvsW5GTVbcRY+2QvfXIFRN0HvoHANiXfSKL/cvEu32EVRx19O/vrRGf225QvXj99x/vPHV/+GR4698wwPleT9a02l93gvDNxmvAucP25j9l7XONbvG51wZ57ehTxL4fZi4BvB5r6jntSxzWeXeq0Z7WkH77JNrseZzWfMFz2W5h4/Zl1D1C9dbEz65DbN/BS7YkHrz9FwC88T0sEt+8TFZ19qL0TGmBsvvvw3YE/HVWk9sZVNGnzSwGgP7qqNzfYnp3kglt6zgx009uqfnLFBbLrnh2oBV01nma6gng1o3aR01CgWZ9tWr9aGiU0NYf1XY+1cvi1ad+3RRc4Vy8D1HU5ace9R43Y/zG8DXf/+jx//8rx/wDdtD+1irL05H+d64vbV2U36zxev943NtyJcvHUPZTSO7vqP6eqSm81Rdc85kiibR16WAJZc3Br06qZ5t5QAtMboidW+ZB5L2aEpwr7XWcOt+dEHyyrUu8Kwrn3rzxK2T43VZQ62H5suc4lPL0UiN/7sVYg/9QaA0NywQaKZc+9iOQ0ftmB7uo7iG6utLP5+XoyVJwgKxnEA58kHTgh64ykcRCyjTxS8rTVkuujAnBNt9t2J8rQaOQ+nseq7M6JuynG6X/tE57o9fWkoLi/aa0ukcl5EfXrbGWx++erz9Ecfva7z6TU/o3+X3v9e3zhEr7CXN2tgj3lp/W6dGF47Q1jqfX7+A+NS03edQz3DSEjsfuFf3jQZLsi9DAJcB5KvGdTP38O330fcvuTUc2+lZjcktnb/Jrtg5AvZnLtdgWpWFWff0qgfU+/6vTxzb77a4qns1YJWaevT9i4AKlS2w0IjKUb6s8vDIp0nXyqUOTWthew0jL2I9sAoHmZ/jrKWgE6s1pq8x+rLSNPb9wMpq0CFxOZnbyxGvMPuohDvY7m8ELR2QX29U6EpfVuekeeuquPuLU97zz0Uu8/ofh18H+OEHnjr+u6++73j0Sc+vn+dJaH9ei/bc6/f+zWPktTXPXtA4NmMkZkiHJn4dNdTDbPTy8XJN+xdbVN+CXJcOrRXXfLQ6WOe5yqotB+s1FRFptbGD8blofl6J7WTdyuHQjDi1QH2tyfUH6c+YuQrYvHnwkPepmP671vOhrdfWT1qhOcUlrmb+g0CEmqT8Eae4jprVM0sebVE+SUkU6CttaZoCWhADf2rtS0bPKXBtRgukAemjHmJ6Pl6qWay9oKJtn9Ongc8JlU9ukukPL2Kz5ejLVpz0nXNGvl6tUT+4ITqu0h954H37OwH3P/rU8ce+6m36J7tn/poX1+G+1zrkvPew1mvNGwfHtAp4XtWzfO/VukA371a03D4X3dO+aMf9ErFhzdFA30qNSvqNGt9xcr4vvGZBeWsyDam9h7h2lJO3EA3QXAx8HXuPEc3978lwpe0awGUwn7pt/8q1MgWF4Qq46tE+uStUmuCYhps/C4MtK9pxDFju0p8EjZlHqS2fOaa20EuA09yTo57YEfl5cCF7zVEHxJm/OwrSbmL7nnxqpLFIHK/W6UEgT1gYXZl5M9Bx6U71ibF1B/7og++7vxXEDf5n62M//wtvL9Nrah/kXALcfJc578vW4Hy3W/CDjWYjG2v/Qfbvkbl8/jtXBw9nwB6ffFX0ekT5/ANC7Y3rRay87fRW7rxy5eNoTZ2V6eub+sJ+vmTFAtZFZBteXAfy15KF6ZOCoAmVj1+W+x9fjG1qydOejnBXZhmnh8YSBakULhaOd3qDMBc7+nKlKO36iC1COTCahjTJ6Wjt0BebdF95/VGR2Nm5qUSHz4VbPfa1UiEZHKbq9p7y62gJmo47vWz37Jhp7afeiWiIfvh9+P8G/q1veej45tc/1rOuORl+cJ3xnjrXHGveH1Bpaj/rhrcemFl/B2C+s6auPA8nzI3IMYX4HDhv7Tvezv8Wg6lru9Ys2fDqGb8gf0LXaIxm3/+SwoFTOd7ca92j5uNgX4GhtbNfh+pTB8fWcZRGtqLeb5cU6Cvj2nI997YGHb0HLEvQnwO4Hlrjom0jIgsJxfdmOKaOgyWeCKC13n09rILjo5Xq0rxw8lTXrwqj4zi++veEs27H8nfd08xFecqSRsdLfuIeu9C6hZNfQR4E1/XNuYsKb7z/ffNrAN/wukePv/NtD8rP/LFBorE4dUJ84y/tqpdp3f6wcc6XHqjDqcBGQ3oPNGQ1Rt+GHHpZk+4rd1kOc/2N1GYOWcIGvmP2K8f67sMrcK/9k2dBt4EKEsA2ukf0+G2nLWVCE7TQK8zq4SGyFUY4MD/WKyC3lHj4+hFABJXc+Z1Y0s6t1XkShTvnCjHlqEbCztl11+QbkdJBXVh4jXVyXe/QbxOXmH6V9Frq1Z8EwqlvMa1cNQX7PmG47iBKcYC76rwScQx45ijL2rN+PRQMgrarx6qNfdNDK/feAn/EmI/+WQtrl18eYdaqWJxjsHz2ds4FdEpfxeVHNvuvjwtQjHnA9Ip+nTOQfsl1eELkk8fnVUH2J05Orm8FfZ1wGZ53zSXSJY43pF5DkKhL3GOf2z4R85eU0UnHXVsj60gfgMWdeQddh4fGbutrDTnJWp5rZU2VX28A536rIY9ZfMMBDVSisAUIu3kmEOBak3nO05EzQz6l4ldQh1OVKPc1L31PkDKAq1GkLawRzr51HJef/SjYbJRS226cL2Cjz8nJnxOxPool1nzl3vfwe/cXAfmHRv7M17z9ePAxfrSo+fZ1FeT13FqDiPN3fThHHWdIv2kUOyeureZckbDvP7/SDbhvu6VrSpJ/XXnNQbS4QGvm55INqnGnQu9/eziETaNMzlE3dw8sx5WzMYfC/sIKXVNtE06dJMR4Pa9fqU+Ray55fIXy8eC7hlyPLiqsb67+o8DlZwouxBK2jSk+F2qGctlc1c4Oybu3865PnYAUTsNU4LLVz5Xu4Tpz+01khSFZ0dIr35qKofptrP1CiV3jvQidS5y5VNPcsjKN0mCKDK152/omTd05Bo/UTwCPPrHi9xT8Ed/veRN/1dh706iI4blJeV9ee+cV+4EEyfsBdZ1GzolP6QB59rXrNadYr4eYMeC66eXrRmrvo7Xi89rqlrf8ld6vP5XO2S9HN4tV4rEanh/M3Kpxfh2xngOrfB3CX84pR3HxE271Tg9UIyujvnpdCIk86ugtGeyv+7rGc+lHgN67RyXjp+DUCBTpcoMKf2Lo2rY7zOxV3ZTJhy4VE3ax+vRAZHqtaSts3fJtZTpXQ6+gNTq25mmsLvooqcG/dj1YxlNX+e01dIW28xDZFFyXGOta/Kv6m4HvDXznGx87vrR+7qdvHnY6a1+Cz6H3651J03nqUIQ3cLx/83XM/iv2PNtc2itesObcQZha9W+fl/Nl+wG8xKpbfTGpVh+GMqA8L6PQc5XnvLXysOxN7BqB9iZv9eD6VyA2SBSt9e02VK8elWDO9rUG8jX0HCt0D0DoWqKcH/d3j1gJhPj6XYBMMNgWhZ+0GuHkIhB0PpMq0CoLUDLtFLQQRrOpM1d1etjcZtD9rKGf864lNu/py+v1Obuj11Ug5/LSdR+wvE3bvZAlL67ryK7vYGVnvc5NqiCuDrphOzbvmFK4tz/ynv9OAP8F+Rd9zf3Hkz2HMNvqG0Tr89wge9K5tNcPV7TmTw8co9/hxGX/0UuXc+I6DWkMa1AtnayO6WeeFP6cQ5KA6y6LLnxzwtYHHk2N9AGeF925l4BtP+uIf7qeWofribMXQbrSK9t62axh1a019Hoq0Gjlvm5B2ytGa3bGn+jlFiSYEIl/EZAFV+AaF3iDONIOhtcmt6R7n+TxbVvPgrQhg5x6OnTvDVpCz6nNFDjuqpS4lr2UvrUw0brPuqENrydzAEy0MGKdGt41QxfYH3kO5kspPmBeY3FozJuLhj+s857if/umB44fud//kCfA4Hv/Xp3Qe9k/pfibmPc6usKcu1ru1sE9ymigkYWv0dDe+roEnqP1NdI/cfI5LwJzK3Qv8rtVD3mrnpjjxDUCuhCaW/eCue6BRjrz3i+OsXZFga36sVbxrt2VwP1WJ2kSFBQqX8708hoD++GwoqX1uTCRPrJFwepPAhLQnGuDQAHoi0oojVxy15msrGvd2Hn7HCZ2cuK842succxZVnPaAjK5CWLRtWuULy7hlsTbpUAnp0cmiistVBdh2hXS2/WJPbdGN3I+c3SOF1y95nzCbzWPv4e/Dvgdb3z8+Kff/VD/XL5+QU+fshpeV+Y14qH0utaaQJ5fh913G4H80oqv11wzxTn35ege63MAQQ3Cgvs5B0kIY942/czTVylh1Tt36idu1fYUNerotODc2n9yDs277mJwUJ39patXOEkymbVeB866z4FrHM9aCngz6nCuyf3lnPtW3HMS668D4+qri7OAmUhm55ovuBU9ewNgpRckrINEqULas01xQ2HrOsVm9s0nrx5F7xnr+gJtNXiakVKWQ1yHs+XYFg38xlmjcKH2P99BN61uAnwtNes3h80DBKQjLvv4fie/i+C/6f6zX/v26nO5/8RZz3nO5PaHdWp4dS5a4eIGnlGMJeaD/QYFnrP7K27eRlCGafpaOAh63o4Mrxmob5rCJ6ZXs4oJ2lzuEdvuKdfUYPSdSWx4A6K0/KVZVfXqkr1ytdn3ddZcE5VOzwuvvV7x0s6fAzA2fy4srSnoWMY+jfYTQsnWe/hQmdjHtRmIaAA0cRabDstD05xsrye6Mu7hWA8hfUxCjKZLC6t3HMzeR7E8g2d09t8P7KxLx/2G98MOopmYUb4jLlK9AbwHnwD+5r978HgD/1Nv5tb+17xgjzmujKE3D2xpnE9M1tDea99Q2gvXX9HCPqdPkdeynw9hd+H95TnwZzgW3/lg9tM5QjHsv17pBZSLbhvG3BQtbNdmQD17QuJ1rL1FO2tq3xam3/w7DgfkK+6cXruFt2DtwXs8c83oujRviSzx/DagBLxG0MXCtjDZdurEro8w7kGIPdXSK4RuRs1EYB0tOp/etiRqpKY1qZOm53dqfRfOsqJLvtMpUE9rEpdTtblZTHsdWVMunGgfVl/WWmbN6d7zBpFY0WbVm9jJx97N/yWEv0n49779oW0d62EB4hh10O+td04WrpXm7QdZ496P7Y8vZ80r2z41gTs7Dpv81JUjxqfXMUku7HBt27dN5/LRwau2/K4Dru1rqi/Xme8aLIO6GqeaYOs5oHav57XVKDdxNaC3lK3Fdr37r3Xu2HtWUId9bb4OQL3g81AM+NuAw/kjg7yuJEpxL6cboVbgODxfGhsHtom50A5ZYPdGRk9qSRF2jTXYiqUR07ke6pFKQzU9jL1fje5lMh2NvImA9F43qM/T9NFr69tD+5MvVxqgnJcyWii9g8ev/JNPtehdxF/+hgeOJ6pJHlLN10gczrYXF7fs2r9vonONjKy1OEvDuGbubStzHjNqMjN5Y91qykUunbicI2uiHY68GHME0eqm61hrUEiua1oGXONFq42GBclxPPP2ibxHr3UHkTjd2+nh3zIevXyF8k89WHPFZtAvu1T0Xb1cX4Vz7uCsJPb/Dai9dhHlmqg5GQT4FktVh+RUpx6N7metVAIerGo9QWEVRstRN4MGRGtlmE+R4Lm3HtR0H6FS6bHmLLQv0/W+Ab2iKGPn1zjoxysJ1jNPDPu1Nbz/aD2/b/TcJEu7zVk5/SMd7yK+6fWPHt/wuke2tRX6+swoyqOO+qoXe6qR/QOvr/i22gsu2q4zto+y23UIlJPe52Lqp3z1TUtitk+YdZuP9aAIM98sWrty5XR/8Wg0EZxE1jRST372P/lzTfxdO2A9WlLPXd4otJ6+/iK9dhCdRuVtz7579qqqNOtQXsMv5ZRpfeuCRP6vweogAYsjtFu+ssLu45KXq8YEXds68/Z9E6xF+Aioo2J/IKiV8SRqHT6J7oOpod6KefNiwzuHsmy1sLv2aL9eaCFU6zoQC7SHssgs3ebR8tLLddbjtUbDuQBfqs4Pt4veSfCG8Ze/8YHeAz3obGuYxwJpyvW1yZy9fwXbg62x+2R3LURih7vvObacjSCel2z6b4rqq3XVkfrkHXedRhGAdZSxotekhPVFde3icFnjqVbnBkXOl3UaHKT1K3DOsfXxO+6c4G1Jc02OuOfV/tuVpn2BvnGnh5rSYvgg9TD2+RHgBKbNxi4gwidU4QhaX4RzaJwx6Miq61gT6kQXOLpGYcE7g2PP8clP7znpWClSJsAhE9B2IOuv7tW+jvE51HGvE9WqcB1nHwAXPt+0p16m+vVJZ617jk62NZRj1CH6dwH/+FWPHK99y+PTV/PWgvD83dR+1mm/Dn0C4RXrHIvx0UZ52d5k3hyid/2aQ1bH6u8phPm1EOmxCqWUlcM1iCZDtPw0nBoOyfHVmqxR9a1zLzx8jtnvqkse7LVg1Ybp/TO2nNxIBNbs3tGikW6D4jqnFFvTOpKX96ZZcfMpqF/yN60t9Rtfdv11YJ3ATVxBUqMB6GLFO+ejFxGon/q0Zu9zQk6Ml65xHa17Ld91+B7iVb3ny+ombV7HQvYrwutODKUHXMmszYgF8xAUdj6Ak6aTWNxYDrK4/bCGn6J3Avy235d8i/9V37XPsr3HseI3FLn25lqft37TaLH3Sd710Zx8mT6Pspw352XF/xhDOkc5YgW3XW8eDGmxjnW9tMay2u/K7w+OkH6M4Xu9Yq13r3Mt3tKsetvi0pw1lNGIhpfdC/BmZZ31Hid0vt32s7a1RhvWgWlb6HShHN4sepn6NwHJnQQFfddmE8Pjrw3YdpdopEfjjQzg9XIwi82omDWlX/IgvYbpC4Ik3D5beI86bnoDv0eYzjuOw1o4NwTtdxOO8r3o4QE34v7GoMaYGr5Jl17HaLsX0M3Q/juDf/jvHzp+9MH+33u7ECu/2trvebAZxKLwEekLibeML+bafS7vgqdXD8U6mp+HdB5kd7e05tC1sjZwL2t9jvp6Oq2yNZe1JNusfAdyqe+x+kkgnf01V7DcS956jvj7m6dy7IvXzkWvgQaKg/MtHd9HapjbvFA1ud9MNQ/XGkw6yldOoX8NYIQ9NJGrxMRV2IuE1AsSCg1B8oXTAuQmd7GJQuKls2ZqyGNONaxgYc8lkZvN/bJe9w/SBUveH8cVOd581SluXmRfBPy5iJ2vOP76mJa1WJ/8cIVo3xEeeeLq8bdfmf/Qw5z8HuvvhPecjgoV11GjSWXjV51eUNR17Yxw0nv/Oge9bGg/8Ggdz4+XPoWqD/Y5Atf1OlufnsBcB+iIy9NofuaoObW+BHMtrJXVC6zrqVwNPdTKrvOYsc5tRb1/4Lk7Z9f64RxxjEYcy2s+RdLw6pqZM3GBvHrLN1be+kv0/w7sVetY4VnIz+7tFmZSkUxGLFdwbQd7YbnW6jgSkPlUmY2dXs7tuvTeOXtw+B0x7x4Xof49fEP5pOUGjVQpoKnqUF++MYaU797usd5wus0ctoekY46XsW29PMk7xJd950P6xz0ppkIDv+vnfE4/YnRw1gLb1uqFxnvc4V54rHPpI3W8YJ8j+q6NoKxCkeQNQg0JwhK3LQ7f/eJveQ1yRKyx4iQLqtGwb5JD7yccYF/ZG4O8wxWjR1MmtcptgzyppXdT5VXjueGla94vCyXDbccauQNzzGFf/XhtNTv8JwH3giCFvMh1A6FvKrnauVoMXOUa19NACU0HXL9t2nTzAKGHNbhdXBid1nLu59ndUzl0+AzlQffvvTD2NwMgPa9y8ld8hSrzfPET0y/fLRY/3z0gEZBzMFz6Zb59r0+HJ+q5//vf8ZBaeO1VX3Z6lfEbDH29L+1D8YJq6qUefT7XebFWfVS0r7/GnH/Rha4rT6N87R+uNclpjyJZ21ajI4Bfewuk6Tr3SGwbH+w+UB5LwFZU3i+07IdcgTD9lPNX5xJs+6ef4qis8+ga1tu8LRXef4hVv2ntDkaj9dc5qpOcN+TwgFjMtq8d/Y+CljoFGWrE0npxNIAC7cDvF2flGQno3ZOz2HKSytzmTHZKsbnmLeKreWf277iC9uH51GOvB9ln58xDOiG+xtpX738smhq8yp73by6+bLXlmiuUtWZGuO4OJ4zz9PjqVz98/MgD64/8ropt/016jsJ2A/LS+nV9zBOr9qn+k4i9PvfsHK9yGHlDAapNvWoabi0kx5i5eLXedvuRquE3EQ+j1lPB9CDX/PqmpM7io8tipNeAXft3TXjAPDJdb+tRL5KdU+1WjyWX9fgZQkPeA1i/fHReb5MF6bE9gHskuhaZK/71oN8G1FSboJcrnoWIKeMbeS1rTrQGAoWRy/EiKpIV2fCJdbeV2Pvb9gUYC9y33engm8Y9Ar+Bkc9NRV6JATN61m0Dhax9vbPuN6b77tpgeeb9CQD/IseLfvJ9SLzW8vT40m9/sGQ9P0PfBXwewvmadZ7e+Mqv82m+g4b3nAeHvabGPRb2/eOf1z3nvDusedx/BtTEdeBhMSWOtu7h4HK9QGur15oTuA9IXqXqB7KnJhvZc+Zpc6FtfYXiift6BOa7RnVlujS8+xFbL4f521UIdu2Qaz71Kpv9C5zH0V6LK066SRYD5ZqtOa9dy5jOtoS+YezbK/TFBGsDdbq6vU+2a/b+eKc51MevbEzrbY308sKvh4HMesNyLhpxxOH1Ar1ucWjMXvNn6LE9Mp8vAn7PeY0+ueRdzwDOPz2++QceO/7Dmx/XQz8fgqpVppQt5HpMojtfrpvY32WLx4rtJKZz8hVvfeLXa7/+Xte1+2PwuSHXP5C8MXOVoaPDdc2VY5Q/e+y89q/4rFVevvtp3TgspAxrUiwRh77+BWmxDqd256jJJ1LKGVrMzAuXPLZy2zlwZtOxrDKZJycspdGt/RfK8Te9XpvET4/114EFAk6i42uKT1qDSO98Gv2QFalzWlb5vR8Pj5Sdd8qEjB200mTUQZzSa40CPSvOg7BSWvDUn05Uweteeum0bhOzlraaF1OH3Urea8ja1m+vsmY8+/5FOdd4uLsG8eb/WPi7387v+1vLNtjb7L+cyz4Y7b+cpgaOfS6yfmzOF8fUzF7kt1Wt9yXXEmmtM7HXcnB9NIzyxS1/gbi1NfZrqRteejP7j4XSh9e/ciL3BNX29tmLelc8dTrm/AD76a18X29SKut6XvQD5rfrz0vW2tE0dh+R+sFtawPev/Wwno81ep0/Fq4gkZ4hpNhwqhfajb2xVeLYkXnra68bHKw+m1Yv++Ix52Jnmlo6CVcSVxNjrVOqAku8dqCT1PysXwFZX0xLRMjmQs4F1RFbr+JWvDTpBcL7lbqy069txRfbP4Hf8+ff+J912Ajiep/TF78sLSPVOjSStybawJx51VTvzBu4T3ObNpsgo6Gc8/OauDWtm2uAi29nQ+9RupWU3/vf17n3XLWZr3wESloBJie/NQWdB3lG6q3btNr/+UJCp09817Rf8uQH7EcKQ3XV1/vbcpqKe6f3d9nnAsiv3HFLGSatgEYq6UUwuqeatluQ4DxBuYTmWtuc/fBluxdYnxi2i8Or9DrRPUAb6eX3icmLL9Urh49OmZPfu7KPeNvbmqt7MgfUppEtZ2llZC9vusx+7aeTBtu/yKnuUrfhH33XQ8eTEqxzpZqeK+sC5g3W4H0Bal3vRcB1rsL9JqdHrn9IuJOGUbH2n3NFnrh9T0NM3vMrpyOaOrRGr67PPDm34sVk/6nBFtc64FwG2ugMSU/Xn9hWfXT9TSpfA6hP5xUPR9TaaAqzdjKUdJ3Oa+XW/d+9GMVr74yKdf2Uw0kNeXO2pDi+Y9x925Xjyp23sgATrlsbzqI0ios1qq43YZzj6LIw0ukLoX6M0ZSnEnxU6YW9ti/wyemgNHu/lXPtXpePyKohbq007Flazzs9xUUjV2ja/ZqH2+tGg1OaycvW4HVh9zl2sK9//KqH5e+9vW67GPfxAJpbKJ3279g6R9d7k0qdzmdb9RBbKCe9cv33dWHtr/OK3tfHldJgOeII1zsB+bFkzbNK0t9xHhYgmeoSx0NTrw6nHj3O3Aud4yti7dX5obIuRnMqk7++YyN46il+W9m1sOmvcQLna8Hze578l+AOz/t/Z3DvHTcfV+6pd4HrwSemW41dJvk16e6vMSelAnO8GtvDFr7DPlnWy5aRtm90WHdeOTgB2fQM3+uIS01nAqIZ9KMxfWJ5lauRFzrpu0YR+WDNKw6dXvSzn7V2upA5r8U3vf6x441v57f+miioTxPj17SmqnNZZxVVjv6tM+l8W43KzcM+tkyB2Lo8yKzf18y8RzBcHWID+VqrSTrgTa/WYs14PeKpU47YWQ7k9Hzim214nWB6NPAJZyhvgczMteV5WSLrc4GgSdB1OZKTlzcQRT63eBlr/xxVVnEd+pmBVQvliK17V3AvnwCeVe8CmUyL7Qn94HqGdbMWrqNRzpQ1Ay9M3dVqF7n3Quaq5LnJaYPyew0wWQtILCumUA4S2Fwgx+ZB9s8KUp+z25Kpmwtg0Sm/9kCMRZcHKZxtMJyi9CZyr0t85av9B39SN73Fbevq/G69f+uA+BrhmfJy/miKVQyWv9a497Rl37anHH5EBfWamO+SlgS4vj4mT2uvg+J5EvjqvPxYs2g94Lh2sPlUYahfjfnGlQEN0df/El7HhV6j59R8yXE0pNErMcTKA+vNpTYyV25rdfqdwnPurDeAlz77lg4LW7EXVS86srGyTKMJdBIs17iYldi53nSEWWgZ33Sta99JGwAlOg+jcrkA5va17HDPclSbLH7XFZjdPa3Ye6Rellhs5m59/BN3EcvDLk62NHt96sysNe547Imrx9e99lHrRtJr8leP9Wb3tDcs44LvNoWq4UXcmrN1T+XhWivAmXRILGsiqdSD1EcTrNibVVju9XQw+zjvv4jBdv2L33vFy5uD8821Y+ueeAzmMnqdGl7TYDSgz18rnHJkZu03sdakwLVCb2Xfw7uCVzzvtuPKF3/uC+eMrE16GNsJix1dLVp+FjxFC0XNL1ZUuE5WQ2HX7yNz8GKe8GINXeSy1piLVr7GOSdGmqhAzV+hbxrr9j5AfDP4su13eM1vP/GUTq51XkP7WwziMc/OB1//ukeOB/T/+xUqnXPp3vi+OUTrjY+cM/vwPvGu5QG5bSvO18Hne33H5AjP4BQufg3ASoaTeI+xPk/OmDvPtfWtQ/xoxEFwGVs/v35FTH6rVZ10C86b22t2wJ/t8oH/OO4Zin17aTA3SJyKrY24xF5TBSPAem/zx39hk34X8OEvuD1/EtAT6d1SUcH3j+KVa11QHCd6zV6a8hN68W0jEcGXCYdLJw7ba5mfj52ST9oVqfEthkcFaHlrN17y3lz39jq3uaSN3nlC9dp8IXz7XOA8PPt/ERa957JVXEX9SDuHvg46rxf459/rf+5Lg1fb09oaM498UeYI9v2Lcw46a0eBm4clNfJ3MDdK0elnjXxs+5E53n2OtuaJ3UsPMpwl19Qo0hrgzEDkQdtBX9Vt55Zz73nRey76BfDudd6/jwXWV0Yx66j86oUPt+oA69gadK31IFJ0s3/FGfEwbd8N/OHPfuFNegOYn+XVrBdUh733vgFA5A2Wx8b7pZOrE2EdnU+V0tqRZtMaVFgDv7T2MNv1m1rMrKXsxG3Hn3jZNFya/UW8zT9j+5hNLL+c2b+C9iVRHcTEY7sXYmIdz+A/C/261/IGUFluCsiS88BCEWfk5p+18ZLruqzV6xct5OGXHusiQTVd7zj1MP2dGj/nUkcD+lTbXvqr916wYdfE5udzoL3yVVaDeUarlOYz1XXSuUZO89fUdQz0pwTLZh/k1v5dQ2J/lpzpHHwTLW0eu/W5HOFtOmYN1W+1fLehN4Dn3sm/DbpazeKZYJshk18C1jo2Hp2xbirzpwsEi7vNk7lHk0Ru+gLU3LwF3QSN1Aek8i4aHcddA68HSVH2sHxBnIPklMctqCa2DrpAiq0QJx4dR3pnrWueWWOIxrf+0GPHQ/3xf3q1ZFe6zutiuB+xawDGnpF+gfIc+ryRGS6+vDWPY2uYM9z42PHrEA5H15bX+vFi/tZixIWp44XOxXo4541n00vZGuuphG1d31OaUzoj2uzfZNdcB7B0Hku9Ml3D/V2veRPppOch7XkucxAdGsnx6tp3Fy+8+2ZZvQH8nJfdoYB+15twoS+UJvcAMnqI0yE6smekBuBaZ87xgnxdBGuIYz2HjOAWPpFg6fohaB2Y+XokpXiru9T5dx/MZ1Dt/l6nBFoHfdBQS77o5oGzqxf5ydmc8K+//+GlF7P3WrwZx8aFTmOPOZZmzvOm6547zKHz2Pvn08i6ZqIL5bD/Pn/NGNI5oq+sTPdNL3he5VhVfHujlXXebyQ66auPoi2WplTli+8RrHnDd034Fqvf5JrbR8jC5nbebwwslRyxuzsvO7x9id9DfNYr7pHVG8D/+Cs+eHVkhuuddE0cIK/3re2kxtl17mCoR/vp73241+kktQVZxyBraz0mir0HWLn0X/NwdJ9+g2jEUz4DHWSQs1V2+sX2AOvTD/PuGsc7rqnvmzL4+u9/1M6+f/muVd3WQ7Zz47dVLH/bP754C5pS7IcJv6B1rbWd5uR84JlSzj2yTo/JwXev4W0aXdeRwBziYLdzUfBnhuCcW9b9ZOXkzYIYPSrW1Tpe4nb0/svk3lEH7d+DQ+b0Wog7LOz33EkrQ3/PQejMmnP1fffxJf/pS9VQbwBAfymAhdZRE8wNaBteNq8KznwGx9SfN6ua6PFl68jN3JXKk+sBFt/E/iBo3eaxUJEpJ6J7aHSt8v//3s4mVtezKsPfppRCaw3tCaFQwFYkihBJI0SURGL8GahxIAMSxYFIYjWBEBPjCE1kikYdO3KikTjQgYkmDsQYnZigwYHG2DThRwKlFLCn0h6O67rvda/n+b69T3/35n73866/e61nPc/7fu/+9s/Zp9C1wKp5gvLlu7yEzaOWdVFaP83n39bHk7i4GeKzBuO0xue/duPw6ONPax9zs4qvfmyFjnR+SbtsDw/tZP2FeVh17gLXsfk90kNo+Cw58eF4MH9bQKCGaMd5R9LzcOTeQWjebpQ1rL1wjiRH60K1L1658DqDvd44BeXMPbhH+/6veOZzvdJEYm+WxC9z0HvXlvQ2xEfqvHrSXFjEmyxfjTZfEl42r+3tAfDuN72qzlt1TdajXb0Xhd4UInS0vYAUkRs7fi+uVUswvPP8HcMfbPPN3Mwhj2S6ZtOAz6nVVgk08i1x9tpKz4VWrPz7O579b/2x/rk47c+8kuHikO6YajPah9ex4/XrP/s48u03v2uDFlud8/Mnpmh8MiKLi17Da4LbhEI0cerkdVaOXpg1MhcmHoXxUQtGf8lUEmQd6Xdkx0E4modapYUHrBa/XdjJ0bOncoRyEFtz9IhtYVkjD9h2L2gq+qgDMnaSs1ZlWQ+kqf+O4bOzefYF0TPHZeEn33JXa9sD4E/e/7oz5pmGJDxrFiEhDgpN49VuDJoiwMtv7blmHU4ypxeVHGJ5Qa+LXpgayNx0wNzkZgRoTKE4R8fMt1TEypbvXvXNmfYDzVsj88PxBZcpJJLeRlYjWlNyJejOcczhc5gm8A3APS86cG7y197YrvPckKd54SA7XsfkI3WzhkPt1ndO+pUNzzoQX5JzHpKOHvWS0bzoofibZJlj1QCoRDhcvwNB3zs5dh/gPCP5xPFw/5dwPjIDy3quP6q9C8nb93Rq1cHVB+jyDW/TYZ3cYy8Vf/PBBzL1egCAu++wuRopySZUE6shA9v70+2rydJCKEjl1DHAxQThxg/Qsll5EOiApx4IKCxdF9ympPXioXcg9cbP4KTeOwc9vhpzwRT1hNEdcW8gPcZn24Di6MbvGsnzXD1HqVpTSW1741+/4K//RUVmwJUn+U5MHPiz2AIU1amUFSG/nWg9USRITniey5zEqLel2K5DfEmpAnleaxLcd9Y/9eqYLyCGa1XcOpKbqHTFLPe4fXXChxLdQpgcZF+IdhVvi8lvCdA10FWzY1XD11mGzuaZP77xA8+RcVl49SuPXvLHD4BffOhuT85Ce043VEa/IOXrFjnjmiEvehjt6zzgi9bQuql7ROm6cRxv9vKrJeXZlU00B9fkZcQmbrV1G3kXS6n9s50kIfRNAnOIn/iwZh/L6mDmalPIHAFqzMee/Nbhs088LZu9WzdSoa/JcT+2ceBbfudL5+iArodG64p7/QC/6qHrYbK+3ME7A7t9ibMB9sWGg4WvNmdeXP0wwGDP5MMAvcbS5po4UMi9g6dr7WOKlOSjbdWzqwb65pe2vsQyd8XTj+z2ybarffYPt2Ng2fS71i+6gC99XD4+/CPXWjOOHgC/+d5rZ3ee++fBtITPhs+1sK1FX8dlo2mdyUGuEu3fN/J8HFUjTpAbRoObBp9cq5aDDfp0bM1lrLpMfOxPyF00wuGkXrfo3ntGneLjZto5siUlVEtS57bb+PTn+d1/67wrAsT9IiOwrVGyh5cl+GbGCpeBp+v1AKkT3fD1Nq/OPHhwJ1wwtSetIX7nj5Tetvaja3KiFRnxk2896OXLP2va9iTSOn73qQeHtO67YBtpOL3ik2+f3c6zXacqnWsoQ3VTEVhPH+ZS2/WS6zW4LmUSl92xywT//v/jP7X9xK9w/H6g8P53fKcnbpqbSjN2epMSaymCNyJv8+dGQTY3mE0OXyZ1y+aiNllC+Y51WgGObVzUOQltFwmXe9G81C/oArR9GjPymWDVNq/1krGV27qkRcusP3W8HnA6v3qW7fhn/qfe/mN3zF73CFU1kRMr9PqPfMxZ58wHjuPOUaydXBnm9D4Rk9M1rLoGvk6S7Pkl5a06xHBmrf30G15Jcr3+9hO3kL1eyAXtCX57RpJcA0vzNd2+8OCg95DlWPoT1IfrcGRvoKkeeo5OSkxQLe7nrmOv/FpnIXSb1Nn8l4xfe/e9rS2cewB87Mevnek3A9Ow16wGsxlysyqwNew4eh8yWnZcUmfgzfaNjUZNb6w3xcz58Zus9cKVrzkgvmwuCEdHGR7mAWTqgakdny4iPZ341atrSdaYm7zlXss+CfusSi5O1s+Mrv8fX/If/jRPrq7r3Kx1esS3v7haZg5cSyq8xZacPenrLP704USEtUIp60dX9pvfddrnU8czVA9mzcV+N4dloKsXjg4gj3RpWx2kPzyaIyl/2zWA/fYd/6iXKNc/dmJ1rlbHfwuOapWhdSRvkwIx2eT1+h25VFy787bDJ376Pl/MDeceAOBfPsJ3CVkh3ZWjhu4DpZ8s9sKGM0+SFmfn6uatjzxM5kJziFh5pXRYWPntZH6RM5eBhzr+gFOOprh2Y9N1ASRB9wyZkSZaMue8+CwE1GUWd/gdK8Xx9VkAfcVMTOQ/v/xNlZGNTKCRdzaG5wLxZb49ba/hHqhB7uoVVbTOF+ZCeD8T6a5HH4jfNdsvblN83UDXYy6Ndhec5zr+xjA+Q/LIxzqsa3St6ALrCgGBQQ2bHbelfCmibFj9CpGFpRXc9hEmp+D7HXTf2Fv8MvHYb7/1pBPjwgcAeOj1d2jVtOjmvLg0KC+7sjWtOEM+ucSbheli4TEP7Hw/CNyn+MhtsyPt7zr4S2ozZ4hS8MYCWHvM/FK0BOvmOI4O9qf3sSS1L5wOx8Cqt+uOUQ8op3TsvRfHnMc3AL9SQ/nNkew4ef6sezK6iHjoyInb9s2HsX2Zs8WPeKUnFi5S+ytfz8WJesmTD27Hd79ijmuUvcP1DaKuYylf67aR8SlszKs295AHmFp9TwLOVrmuxLpmefh9AknZWy6+ttGB9DasL/6+F4CsnX8VeM8Dd7Z2Hrd8APzFL91/pr8X2KDRU2hR7NK2iQHWLKwvxM7Z6eLWyEVJTuZE6jOUyjCX3Ec1CMVEus4aZnQfqtYXr2OTowPddQLXsF+oUs41oo7ss+ziIvbYlpq2ev2O8zD8r/rsj77Pk73mnZcwIe8LpiW1up44xc91EKt1BzvHtqXcRlHlY8SPbyOtOsc+LE1bimMn8/YA4sOTlQcT/sXJ+lMHKKYezXKdHn2I3inKz16oFnLlxd6hGv4wmK9J8y6s4zPaVs8ldB33HmJ0L1cB/uTfPz783bec4JYPAPDvv/Hgmd8autn0rIVlcChgljZRliGfOLZdRx7HVkCQVXPMi0Fx9yDbDOnuxZ78rNjRSPKsi9dDPXBsugHf61xxcjmv9a8XakvTjnyndnxAfdQxevNiR+o//ig5b33rlIfB4tVAcvZyJRXPTZ6j88WXrrDsQeaqw1xsM1yT9aPbJrLHj+z4SnGk+2ke9sqFU3ZHdn8k6vSvsz+joppH/nmpXI3KMlFy1o9Ua3WqD/HiH+neeLGfrn+uCRaqTUGhjgfuI7rtq8I3fvf7vem3wLM+AMDPv41fG6zFq8nVOBulcQG8QG+O7TppY1XBTtDq6QYcmboh7bDsi8rZH5MgPz6b4qDSZruE3NjAvUptPUwvcH/B6FA4C1+9JMs+ePGt/lPLSK5ru+a2tsLnvvZMudwD8HnlmLvpddIcsj2vI+jmAvQAdeU7dyG9r/w9PL+WOyN7ul4U5FrvfkpNJL0tbup0P/KUNE35UlQrds3VzPicXTpHqWTY3/3pbCinearnD8dqqLeeezhBP2ADIjPg4yzMJ6euIVBzGFeDD73rntZujed8APzez7727J33+/sBdJ2FaSP46DX4qdhLgsvNMasttBqX0zl8E/nG3WoUkPrfXAp6WudCcMBVBOTmKk9vrOLyLR5ydAKC548dztRrfV8/cL/h2B+f7O4VcLbWdSM7DqZe6XF/9oln5jv6+2erxFuoN+fiQSdGvfDNtN84fcdEED0cS0fVmzT84UFgDqyeU7ZoBfcUHOVJum7gOZwfN2Lxkb1OBj5F8OZBHY5rOKeuC/7ZI0MhZEY7Vry0NnQNfPnL1Txq9SDg+3/FQWriGpUcyeW7Cvzog3ce/vh999P1s+I5HwDgzz9w/9lbX3P7LCiLXpshc2FbGdosehsGSVja2YVz8xiY0u3e6rYDvVRuCEEvWvuGi9G+uWnsilAQ3bZriNu5unG5oWRBb23mw3Y881JTQiduRpnmMOrkmHWm/Vw9AJDy19kcH6pfDh0iuKbmpg1TBFRzHJdeJ6+p4022ziHKwHl2WPqmX7aBFgu38tDtGt1e9iiyA4jU63k4q9YchmprtKOg6OwZuTZSU3UYdeg6Kgh1nydDgRr4PQ/1nFd8RMd22HYcjTqWQV+YK8Lb73vl4VO/euuv+3c8rwcA+OsPvvHsDa++XRvlzfJyZlGlaJEjObP5tWXwS2ajWhQPn6WoSG2O+ZHhH6GpytfY+BzIDMj0DaXQQj7S/Pv/qbHiq1bbPcDOnQG/FOn96vCZmOcAfoA0jxycWUtJgM6XAK4JpwNC9a2s7r85q+aSeZG7vrOAJTWtEfON7TxL810781um0nDbo5waU0tn81ynZWP86DoXcr+Uqv5XpJD5UdkHdOa0z/UY+HrA7diO/ceK4YIliSXfcxnoO2fxYs81xoBfinV8rVwBHrzn9sNnPvo9uVjPief9AAD/8PCbzt5yrR4CLGBfWGk6o8yi29ccoS8sIBY3NHSNHB2T6Jsmubmpwwn2TfcLqU4t/QseHNWD9K4prZEbagoruX3Nl7QPhJoYKYq3VKxHYmDxew8ZHOVDPvHUjcP/frPJ9FwBvxhWLjKQPw+d8GR5DcnF1j4Vpg66IqfrXzF8lD/ae9ajw7byeg/ByFa0920MHz2j7PjzsAyYZX05BM9jx9Qbv9cOJlYje7H2hHid5vrj2XXnz9BR6PULJTwHa5SwLAynsLTLxw/cd8fhkd/63rXo54EX9AAAf/uhN5698w3+E2K5kYy+8JuLcDY57qW7T2+ozT1mnTMbmi20LtnL3OeITS0cykNOtPPnQQQx9ZsrHZ8SjtdYeUD16sMx57kW+RICPPXGIEEfIdQcHLqp04cChbP++T+M9GqgYu3Dc5SidVkSmHVx4E8twuJ1Dbg6nAPsWzbo5Q83v+kWxikf3dcmGfiaT68lHDeQ1j2RSnWvegek9YXd/DqtGlmfa2vWUqyHX2fVKaNhDlwP+5a0Sk9bX+QQs6ph7Fpq7t6rAX/P498++hY3+ALwgh8A4JMfuP/sfW+/u61anBbpJWrRWrjMuWnAcJovuy9qhySHJ7sDBdko1CyFC6/6PUlyR8prv6WVXYZPUftd3C8q27nBxJXGDaakI//oGgoX1KA0M9y365eR9Xcs+Y9fv7FsZI+mCcSEXr/7dP7Up9emTa06mdc+EfqdAf2UtfLXC4xnlbXslZG61lMTLvD6x98c/994hHr9JrfevBp+59bGCPcIT+U3e6SGQubh7+zEhivNPYpfwusvTfthhqRd4+OU+sB7ZZ4I6u9q8Svvuufwz7/+5hc100tu722//8jNJ59mwXpG1+ZwzsrxlWyXQo35Rl0C5A+h8xr5HsJFdXasfFMD9bbNke4GGDiD2CFdEPNUi5ibYHrdcNq/sOuFI3dx3/vmOw9//9/XaVlzueY2355cMM/xo0gZePT2PsUa4jX5onqBVa6x55j1bfr0N712DU1nnrszJOuUeTtly2eNBfSjeSQ6zxXx2SInFQvtV27XSA/hTL1Wxt+neD0HVvfS+7j6Iuq7dv+x5FWCX/J5rp/zPxde1DuAHfyy0EOve4UWDrQRs/C+IGXjkuyg/ei5uJHNZbStz0xBTYRpT2a1FJ+PkvvwTescDfwl85mNGMAaO/O0fgr85PNZce+P2kLnYO3zJB49cfuaV8mPX/eXAO7DccN7Gn3QPOXXaYY827uYGu67bPl8qC78GvmqBJG5dWYfW2fMlwAONh8dVAH1xLDTcc8mGb9F+bve1OJMX50DqfuSUvBL2vra59RBlrI/QMLLGE7zO9/cjg08j7jJr7Apjknd7KvCe77rzpf84geX2uVDf/jIza9y45ZO4Xy28Gcm7Dppcwqtd6jMVkKoQDwLrkwOm35aT3xTYGGVyS1iXUAdTqdvPYL0vPeeCY98p9g5PcFFfHzw4Gce2QrycfPwwD23Hx59/BnpRuZeOvXN34G15puYFMdWzc3dsNo85gDpsRDXTFF2XO5vfZMRCrrX2A7xHY8P2SFHhoy9unUP7Zdu/rhLmp1cTlt+5Emd+AF64pkDanhxBdhxib/t1VXgNXfddvjSxy7+hz0vBpdWKPj433355p9++uuH60/7V0108VFqU/YXgtTep3Fjl86Lh+2OOy+SlU+s6xa2ssrZ918hObvOZOHuwEhQusz2T6hOlZ8Qc6anXPidJwyvDUEVhn98+wVnh9d+x8sOX/zGjW2uDhVQu8qFyA14Pp5eSz0pctxH8xp7BCiknqzsNXdu08Tf6ztNBcYr2Ta7rIdIkos7czVPokfQ7uaumORRnea6hbbbrzPzlJYYQ/koHSvo4VZH3vIjWrt08Hb/4R+69/CJnzn/T3pfCi612Cne8QeP3HziqW95ku0uPn0hg3GdgDgbTnhebJu+14I9Nbd6qiFuO3a70zKPo9ZP5yOcXlQDh7TmK1K+LS+Y+rh7YigqK7l8lLn3VbcdvvLkDekp1YzW8HePNuyroehRD627gKRj9mtqdI6NBpo2vuSBqV/mRXnuNdj6ab7nTm9bvIAmt/RU2jno9UmG5ss1nBVWPkA4r3JkrTrxm1/RNpEl1oOoToqjNqaGdKmXDv5O5y//4KsPf/Rzr1cXl40rKXqKD37yCzc/9cj1w436mvH0RUUD2UZbrXNhG/PiQdcFLz0yvltgVVy60IZqTx17sF3TfoTyj+LoIDzLvbXU2HV4mU8poExHDNZ69x23Hb7+f/mFXSN9dTaOVpxvrDl3UHPWupoX8EG3N5wuL7kXW/FMmqhkczn7uuGqc/hd1z6crTfQsJMb4Duy+xSvSricdMft5Jwe5NowsYbt6Ci9XtmGbeoexy8L/B8dP1xf4z/bv+K7LFz5BKf48F9+8eY/PXr98Nj1urlr4/YXBlL2yX6e3K8DvRi6hrJbjwS7DsQ7kUIcF4D0CZUiW3K7+OcKFibJ4IbJjX3xdKtAvf4PT/GTwKxJ3kLZ0dcL2tboq4x8nnM503M8tvC30thzgGy5PBeR+RpfBPOlm21tV7Jn+941Ol3SnE5RTXM5r7xVC8S/+/hG5dF1Ksy/g9h8ADMe5MVxfLdew4vFa+9++eHHHrzr8Ge/4P+x59uFb+tkt8JH/uqLN/mHL1+9zm+/fetw/emD/h98XcOT/e3rav9J92NC6guEzA2wSyG+rRhnbHNjH0tw5CvFN0LdqpsOwllYsdOexNOkZ4fbinKjVNfa4YpNE0zh5BrNGE3+TtBc4pXdlJli6m0cZBOaLhkopBrxnvC3+hKdQG3U07jmpk9ZrtUpJvRc+MJT3I7h7j1ItiK/eIksfXGPOaFOTxwhP0/wVp6v4xnX7nq5fmX3+17zisPv/MTxH+n89uJw+H8vPk9GJa316QAAAABJRU5ErkJggg==;" parent="1" vertex="1">
          <mxGeometry x="492" y="160" width="56" height="56" as="geometry" />
        </mxCell>
        <mxCell id="e8Ee8q1TeskRo7m8Dpk5-29" value="Azure OpenAI Deployment&lt;div&gt;(Sweden Central)&lt;/div&gt;" style="text;html=1;align=center;verticalAlign=middle;whiteSpace=wrap;rounded=0;" parent="1" vertex="1">
          <mxGeometry x="465" y="110" width="110" height="30" as="geometry" />
        </mxCell>
        <mxCell id="e8Ee8q1TeskRo7m8Dpk5-30" value="" style="image;aspect=fixed;html=1;points=[];align=center;fontSize=12;image=img/lib/azure2/other/API_Proxy.svg;rotation=-90;" parent="1" vertex="1">
          <mxGeometry x="503.9" y="250" width="32.21" height="18" as="geometry" />
        </mxCell>
        <mxCell id="e8Ee8q1TeskRo7m8Dpk5-31" value="" style="endArrow=none;html=1;rounded=0;entryX=0.5;entryY=1;entryDx=0;entryDy=0;exitX=1.002;exitY=0.498;exitDx=0;exitDy=0;exitPerimeter=0;" parent="1" source="e8Ee8q1TeskRo7m8Dpk5-30" target="e8Ee8q1TeskRo7m8Dpk5-28" edge="1">
          <mxGeometry width="50" height="50" relative="1" as="geometry">
            <mxPoint x="520" y="240" as="sourcePoint" />
            <mxPoint x="540" y="240" as="targetPoint" />
          </mxGeometry>
        </mxCell>
        <mxCell id="e8Ee8q1TeskRo7m8Dpk5-32" value="" style="endArrow=none;html=1;rounded=0;entryX=-0.001;entryY=0.503;entryDx=0;entryDy=0;entryPerimeter=0;exitX=0.5;exitY=0;exitDx=0;exitDy=0;" parent="1" source="e8Ee8q1TeskRo7m8Dpk5-7" target="e8Ee8q1TeskRo7m8Dpk5-30" edge="1">
          <mxGeometry width="50" height="50" relative="1" as="geometry">
            <mxPoint x="500" y="320" as="sourcePoint" />
            <mxPoint x="550" y="270" as="targetPoint" />
          </mxGeometry>
        </mxCell>
      </root>
    </mxGraphModel>
  </diagram>
</mxfile>
